<svg width="30" height="30" viewBox="0 0 30 30" fill="none" xmlns="http://www.w3.org/2000/svg">
<g clip-path="url(#clip0_703_8)">
<path d="M15 30C23.2843 30 30 23.2843 30 15C30 6.71573 23.2843 0 15 0C6.71573 0 0 6.71573 0 15C0 23.2843 6.71573 30 15 30Z" fill="#6DA544"/>
<path d="M14.9999 5.86963L27.3912 15.0001L14.9999 24.1305L2.60864 15.0001L14.9999 5.86963Z" fill="#FFDA44"/>
<path d="M15.0001 20.2174C17.8815 20.2174 20.2174 17.8815 20.2174 15.0001C20.2174 12.1186 17.8815 9.78271 15.0001 9.78271C12.1186 9.78271 9.78271 12.1186 9.78271 15.0001C9.78271 17.8815 12.1186 20.2174 15.0001 20.2174Z" fill="#F0F0F0"/>
<path d="M12.3912 14.6741C11.4839 14.6741 10.6084 14.8121 9.78418 15.0681C9.82068 17.9181 12.1412 20.2176 14.9999 20.2176C16.7676 20.2176 18.3287 19.3377 19.2725 17.9929C17.6578 15.9716 15.1734 14.6741 12.3912 14.6741Z" fill="#0052B4"/>
<path d="M20.1207 15.9997C20.1835 15.676 20.2174 15.3421 20.2174 15.0001C20.2174 12.1186 17.8815 9.78271 15.0001 9.78271C12.85 9.78271 11.0043 11.0836 10.2056 12.9409C10.9116 12.7946 11.6426 12.7175 12.3914 12.7175C15.4217 12.7174 18.1631 13.9771 20.1207 15.9997Z" fill="#0052B4"/>
</g>
<defs>
<clipPath id="clip0_703_8">
<rect width="30" height="30" fill="white"/>
</clipPath>
</defs>
</svg>
