<svg width="63" height="63" viewBox="0 0 63 63" fill="none" xmlns="http://www.w3.org/2000/svg">
<path d="M13.125 17.7C17.06 17.7 20.25 14.4093 20.25 10.35C20.25 6.29071 17.06 3 13.125 3C9.18997 3 6 6.29071 6 10.35C6 14.4093 9.18997 17.7 13.125 17.7Z" fill="#817575"/>
<path d="M33.025 17.7C36.96 17.7 40.15 14.4093 40.15 10.35C40.15 6.29071 36.96 3 33.025 3C29.0899 3 25.9 6.29071 25.9 10.35C25.9 14.4093 29.0899 17.7 33.025 17.7Z" fill="#817575"/>
<path d="M52.975 17.7C56.91 17.7 60.1 14.4093 60.1 10.35C60.1 6.29071 56.91 3 52.975 3C49.0399 3 45.85 6.29071 45.85 10.35C45.85 14.4093 49.0399 17.7 52.975 17.7Z" fill="#817575"/>
<path d="M53.125 38.7C57.06 38.7 60.25 35.4093 60.25 31.35C60.25 27.2907 57.06 24 53.125 24C49.19 24 46 27.2907 46 31.35C46 35.4093 49.19 38.7 53.125 38.7Z" fill="#817575"/>
<path d="M33.125 38.7C37.06 38.7 40.25 35.4093 40.25 31.35C40.25 27.2907 37.06 24 33.125 24C29.19 24 26 27.2907 26 31.35C26 35.4093 29.19 38.7 33.125 38.7Z" fill="#817575"/>
<path d="M13.125 38.7C17.06 38.7 20.25 35.4093 20.25 31.35C20.25 27.2907 17.06 24 13.125 24C9.18997 24 6 27.2907 6 31.35C6 35.4093 9.18997 38.7 13.125 38.7Z" fill="#817575"/>
<path d="M13.125 58.7C17.06 58.7 20.25 55.4093 20.25 51.35C20.25 47.2907 17.06 44 13.125 44C9.18997 44 6 47.2907 6 51.35C6 55.4093 9.18997 58.7 13.125 58.7Z" fill="#817575"/>
<path d="M33.025 58.86C36.96 58.86 40.15 55.5693 40.15 51.51C40.15 47.4507 36.96 44.16 33.025 44.16C29.0899 44.16 25.9 47.4507 25.9 51.51C25.9 55.5693 29.0899 58.86 33.025 58.86Z" fill="#817575"/>
<path d="M53.125 58.7C57.06 58.7 60.25 55.4093 60.25 51.35C60.25 47.2907 57.06 44 53.125 44C49.19 44 46 47.2907 46 51.35C46 55.4093 49.19 58.7 53.125 58.7Z" fill="#817575"/>
</svg>
