<svg width="40" height="40" viewBox="0 0 40 40" fill="none" xmlns="http://www.w3.org/2000/svg">
<g clip-path="url(#clip0_867_57)">
<path d="M30.1 31.9765L31.3857 30.6994C37.3343 30.8937 37.4257 30.6851 37.6871 30.0737L39.3214 26.0951L39.4429 25.718L39.31 25.388C39.24 25.2137 39.0243 24.6937 35.31 21.1523V19.2894C39.5957 15.1608 39.5043 14.9494 39.26 14.3451L37.6329 10.3251C37.3886 9.72226 37.2957 9.48654 31.39 9.64797L30.1043 8.3194C30.237 6.3624 30.1695 4.39697 29.9029 2.45368L29.7371 2.07797L25.4886 0.220828C24.8629 -0.0648867 24.6429 -0.167744 20.6314 4.20083L18.8286 4.17368C14.6986 -0.234887 14.5029 -0.154887 13.8843 0.0951132L9.93429 1.69226C9.31572 1.94226 9.09714 2.03083 9.33714 8.03083L8.06143 9.30226C2.11571 9.10797 2.02429 9.3194 1.76571 9.92797L0.128572 13.908L0 14.2894L0.134286 14.6208C0.204286 14.7923 0.411429 15.3065 4.13429 18.8523V20.7094C-0.151428 24.838 -0.0585714 25.0494 0.187143 25.6551L1.81286 29.6794C2.06143 30.2951 2.15 30.5137 8.05429 30.3594L9.34 31.6951C9.20673 33.6491 9.27231 35.6115 9.53571 37.5523L9.70143 37.9308L13.9771 39.7994C14.5986 40.0594 14.8143 40.1523 18.8143 35.7994L20.6171 35.8223C24.7529 40.2365 24.9643 40.1508 25.5686 39.9065L29.51 38.3137C30.1329 38.0665 30.35 37.9794 30.1 31.9765ZM13.16 22.6565C12.6615 21.3538 12.5589 19.9328 12.865 18.5719C13.1711 17.211 13.8723 15.9708 14.8806 15.0069C15.8889 14.0431 17.1595 13.3985 18.5328 13.154C19.9061 12.9096 21.321 13.0761 22.6 13.6328C23.879 14.1895 24.9651 15.1116 25.722 16.2832C26.4789 17.4549 26.8729 18.824 26.8546 20.2188C26.8363 21.6136 26.4065 22.9719 25.6191 24.1233C24.8317 25.2747 23.7217 26.1679 22.4286 26.6908C20.6642 27.3808 18.6983 27.3437 16.9612 26.5876C15.2242 25.8315 13.8574 24.418 13.16 22.6565V22.6565Z" fill="#FAFAFA"/>
</g>
<defs>
<clipPath id="clip0_867_57">
<rect width="40" height="40" fill="white"/>
</clipPath>
</defs>
</svg>
