<svg width="42" height="33" viewBox="0 0 42 33" fill="none" xmlns="http://www.w3.org/2000/svg">
<g clip-path="url(#clip0_921_63)">
<path d="M36.5273 0.0566406H5.08255C2.28016 0.0566406 0 2.67506 0 5.8932V26.6591C0 29.8772 2.28016 32.4956 5.08255 32.4956H36.5273C39.3297 32.4956 41.6098 29.8772 41.6098 26.6591V5.89383C41.6104 2.67506 39.3302 0.0566406 36.5273 0.0566406ZM34.0438 3.86433L20.8049 13.659L7.56608 3.86433H34.0438ZM36.5273 28.6886H5.08255C4.10826 28.6886 3.31579 27.7779 3.31579 26.6597V6.00172L19.782 18.1609C19.8041 18.1768 19.8279 18.1876 19.8505 18.2022C19.8743 18.2174 19.8986 18.232 19.9229 18.246C20.0506 18.3215 20.1821 18.3824 20.3164 18.4224C20.3302 18.4269 20.344 18.4288 20.3578 18.4326C20.5054 18.4725 20.6546 18.4973 20.8038 18.4973C20.8044 18.4973 20.8049 18.4973 20.8049 18.4973C20.806 18.4973 20.8066 18.4973 20.8071 18.4973C20.9563 18.4973 21.1056 18.4732 21.2531 18.4326C21.2669 18.4288 21.2807 18.4269 21.2946 18.4224C21.4288 18.3824 21.5598 18.3215 21.688 18.246C21.7123 18.232 21.7367 18.2174 21.7604 18.2022C21.7831 18.1876 21.8068 18.1768 21.8289 18.1609L38.2952 6.00172V26.6591C38.2946 27.7779 37.5016 28.6886 36.5273 28.6886Z" fill="#CBCACA"/>
</g>
<defs>
<clipPath id="clip0_921_63">
<rect width="42" height="33" fill="white"/>
</clipPath>
</defs>
</svg>
