<svg width="100" height="100" viewBox="0 0 100 100" fill="none" xmlns="http://www.w3.org/2000/svg">
<g clip-path="url(#clip0_155_2)">
<path d="M50 0C22.3875 0 0 22.6709 0 50.6329C0 74.3586 16.1333 94.211 37.8833 99.7046C37.65 99.0211 37.5 98.2278 37.5 97.2447V88.5907C35.4708 88.5907 32.0708 88.5907 31.2167 88.5907C27.7958 88.5907 24.7542 87.1013 23.2792 84.3333C21.6417 81.2574 21.3583 76.5527 17.3 73.6751C16.0958 72.7173 17.0125 71.6245 18.4 71.7721C20.9625 72.5063 23.0875 74.2869 25.0875 76.9283C27.0792 79.5738 28.0167 80.173 31.7375 80.173C33.5417 80.173 36.2417 80.0675 38.7833 79.6624C40.15 76.1477 42.5125 72.9114 45.4 71.384C28.75 69.6498 20.8042 61.2616 20.8042 49.8734C20.8042 44.9705 22.8667 40.2278 26.3708 36.2321C25.2208 32.2658 23.775 24.1772 26.8125 21.097C34.3042 21.097 38.8333 26.0169 39.9208 27.346C43.6542 26.0506 47.7542 25.3165 52.0625 25.3165C56.3792 25.3165 60.4958 26.0506 64.2375 27.3544C65.3125 26.0338 69.8458 21.097 77.3542 21.097C80.4042 24.1814 78.9417 32.3038 77.7792 36.2616C81.2625 40.2489 83.3125 44.9789 83.3125 49.8734C83.3125 61.2532 75.3792 69.6371 58.7542 71.3797C63.3292 73.7975 66.6667 80.5907 66.6667 85.7089V97.2447C66.6667 97.6835 66.5708 98 66.5208 98.3755C86.0042 91.4599 100 72.7257 100 50.6329C100 22.6709 77.6125 0 50 0Z" fill="#817575"/>
</g>
<defs>
<clipPath id="clip0_155_2">
<rect width="100" height="100" fill="white"/>
</clipPath>
</defs>
</svg>
