<svg width="100" height="100" viewBox="0 0 100 100" fill="none" xmlns="http://www.w3.org/2000/svg">
<path d="M29.4034 0C13.2635 0 0 13.2457 0 29.4034V70.5966C0 86.7365 13.2457 100 29.4034 100H70.5966C86.7365 100 100 86.7543 100 70.5966V29.4034C100 13.2635 86.7543 0 70.5966 0H29.4034ZM29.4034 9.09091H70.5966C81.8359 9.09091 90.9091 18.1641 90.9091 29.4034V70.5966C90.9091 81.8359 81.8359 90.9091 70.5966 90.9091H29.4034C18.1641 90.9091 9.09091 81.8359 9.09091 70.5966V29.4034C9.09091 18.1641 18.1641 9.09091 29.4034 9.09091ZM76.8466 19.0341C74.5561 19.0341 72.7273 20.8629 72.7273 23.1534C72.7273 25.4439 74.5561 27.2727 76.8466 27.2727C79.1371 27.2727 80.9659 25.4439 80.9659 23.1534C80.9659 20.8629 79.1371 19.0341 76.8466 19.0341ZM50 22.7273C34.9964 22.7273 22.7273 34.9964 22.7273 50C22.7273 65.0035 34.9964 77.2727 50 77.2727C65.0035 77.2727 77.2727 65.0035 77.2727 50C77.2727 34.9964 65.0035 22.7273 50 22.7273ZM50 31.8182C60.103 31.8182 68.1818 39.897 68.1818 50C68.1818 60.103 60.103 68.1818 50 68.1818C39.897 68.1818 31.8182 60.103 31.8182 50C31.8182 39.897 39.897 31.8182 50 31.8182Z" fill="#817575"/>
</svg>
