<svg width="100" height="100" viewBox="0 0 100 100" fill="none" xmlns="http://www.w3.org/2000/svg">
<path fill-rule="evenodd" clip-rule="evenodd" d="M50 0C22.3858 0 0 22.3858 0 50C0 77.6142 22.3858 100 50 100C77.6142 100 100 77.6142 100 50C100 22.3858 77.6142 0 50 0ZM24.0033 41.4121H35.3344V75.4575H24.0033V41.4121ZM36.0808 30.8806C36.0073 27.5425 33.6202 25 29.7437 25C25.8675 25 23.3333 27.5425 23.3333 30.8806C23.3333 34.1496 25.7927 36.7652 29.5967 36.7652H29.6692C33.6202 36.7652 36.0808 34.1496 36.0808 30.8806ZM63.1523 40.6127C70.6087 40.6127 76.1988 45.4798 76.1988 55.9369L76.1983 75.4575H64.8677V57.2431C64.8677 52.6681 63.2279 49.5462 59.126 49.5462C55.9956 49.5462 54.131 51.6508 53.3121 53.6837C53.0125 54.4121 52.939 55.4271 52.939 56.4446V75.4583H41.6065C41.6065 75.4583 41.7558 44.6077 41.6065 41.4131H52.939V46.2352C54.4427 43.9171 57.1362 40.6127 63.1523 40.6127Z" fill="#FDFDFD"/>
</svg>
