<svg width="100" height="100" viewBox="0 0 100 100" fill="none" xmlns="http://www.w3.org/2000/svg">
<path d="M88.0952 0H11.9048C5.33333 0 0 5.33333 0 11.9048V88.0952C0 94.6667 5.33333 100 11.9048 100H88.0952C94.6667 100 100 94.6667 100 88.0952V11.9048C100 5.33333 94.6667 0 88.0952 0ZM30.9524 38.0952V83.3333H16.6667V38.0952H30.9524ZM16.6667 24.9286C16.6667 21.5952 19.5238 19.0476 23.8095 19.0476C28.0952 19.0476 30.7857 21.5952 30.9524 24.9286C30.9524 28.2619 28.2857 30.9524 23.8095 30.9524C19.5238 30.9524 16.6667 28.2619 16.6667 24.9286ZM83.3333 83.3333H69.0476C69.0476 83.3333 69.0476 61.2857 69.0476 59.5238C69.0476 54.7619 66.6667 50 60.7143 49.9048H60.5238C54.7619 49.9048 52.381 54.8095 52.381 59.5238C52.381 61.6905 52.381 83.3333 52.381 83.3333H38.0952V38.0952H52.381V44.1905C52.381 44.1905 56.9762 38.0952 66.2143 38.0952C75.6667 38.0952 83.3333 44.5952 83.3333 57.7619V83.3333Z" fill="white"/>
</svg>
