<?xml version="1.0" encoding="UTF-8" standalone="no"?> <svg xmlns="http://www.w3.org/2000/svg" viewBox="0 0 48 64"><defs><style>.cls-1{fill:#35353d;}</style></defs><title>Asset 6</title><g id="Layer_2" data-name="Layer 2"><g id="Layer_1-2" data-name="Layer 1"><path class="cls-1" d="M47.79,15a2.68,2.68,0,0,0-.57-.87L33.89.78A2.68,2.68,0,0,0,33,.21,2.59,2.59,0,0,0,32,0H2.67A2.66,2.66,0,0,0,0,2.67V61.33A2.66,2.66,0,0,0,2.67,64H45.33A2.66,2.66,0,0,0,48,61.33V16A2.59,2.59,0,0,0,47.79,15ZM34.67,9.1l4.23,4.23H34.67Zm8,49.57H5.33V5.33h24V16A2.68,2.68,0,0,0,32,18.67H42.67Z"/><path class="cls-1" d="M34.67,32H13.33a2.67,2.67,0,0,1,0-5.33H34.67a2.67,2.67,0,0,1,0,5.33Z"/><path class="cls-1" d="M21.33,21.33h-8a2.67,2.67,0,0,1,0-5.33h8a2.67,2.67,0,1,1,0,5.33Z"/><path class="cls-1" d="M34.67,42.67H13.33a2.67,2.67,0,0,1,0-5.34H34.67a2.67,2.67,0,0,1,0,5.34Z"/><path class="cls-1" d="M34.67,53.33H13.33a2.67,2.67,0,0,1,0-5.33H34.67a2.67,2.67,0,0,1,0,5.33Z"/></g></g></svg>