<svg width="35" height="40" viewBox="0 0 35 40" fill="none" xmlns="http://www.w3.org/2000/svg">
<g clip-path="url(#clip0_718_386)">
<path d="M34.8469 9.37501C34.7511 9.17224 34.6099 8.98751 34.4313 8.83126L24.7115 0.487512C24.5249 0.333016 24.3043 0.211912 24.0625 0.131262C23.832 0.0464421 23.5842 0.00182391 23.3333 1.17936e-05H1.94689C1.69095 -0.000814486 1.43735 0.041785 1.20071 0.125355C0.964072 0.208925 0.749067 0.331812 0.568091 0.486935C0.387115 0.642058 0.243746 0.826347 0.146247 1.02918C0.0487491 1.23202 -0.000950234 1.44939 1.37592e-05 1.66876V38.3313C-0.000950234 38.5506 0.0487491 38.768 0.146247 38.9708C0.243746 39.1737 0.387115 39.358 0.568091 39.5131C0.749067 39.6682 0.964072 39.7911 1.20071 39.8747C1.43735 39.9582 1.69095 40.0008 1.94689 40H33.0531C33.3091 40.0008 33.5627 39.9582 33.7993 39.8747C34.036 39.7911 34.251 39.6682 34.4319 39.5131C34.6129 39.358 34.7563 39.1737 34.8538 38.9708C34.9513 38.768 35.001 38.5506 35 38.3313V10C34.9979 9.78503 34.9459 9.57256 34.8469 9.37501ZM25.2802 5.68751L28.3646 8.33126H25.2802V5.68751ZM31.1136 36.6688H3.88647V3.33126H21.3865V10C21.3884 10.4421 21.5941 10.8656 21.9588 11.1782C22.3235 11.4908 22.8176 11.6671 23.3333 11.6688H31.1136V36.6688Z" fill="#DDDDDD" fill-opacity="0.7"/>
<path d="M25.2803 20.0002H9.71987C9.22507 19.9742 8.76048 19.7874 8.42084 19.4779C8.08119 19.1684 7.89209 18.7595 7.89209 18.3346C7.89209 17.9097 8.08119 17.5008 8.42084 17.1912C8.76048 16.8817 9.22507 16.6949 9.71987 16.6689H25.2803C25.7751 16.6949 26.2397 16.8817 26.5793 17.1912C26.919 17.5008 27.1081 17.9097 27.1081 18.3346C27.1081 18.7595 26.919 19.1684 26.5793 19.4779C26.2397 19.7874 25.7751 19.9742 25.2803 20.0002Z" fill="#DDDDDD" fill-opacity="0.7"/>
<path d="M15.5532 13.3314H9.71987C9.22507 13.3055 8.76048 13.1187 8.42084 12.8091C8.08119 12.4996 7.89209 12.0907 7.89209 11.6658C7.89209 11.2409 8.08119 10.832 8.42084 10.5225C8.76048 10.213 9.22507 10.0262 9.71987 10.0002H15.5532C15.8184 9.98626 16.0841 10.019 16.334 10.0964C16.5839 10.1738 16.8126 10.2942 17.0062 10.4503C17.1997 10.6063 17.3539 10.7947 17.4594 11.0037C17.5648 11.2127 17.6192 11.4381 17.6192 11.6658C17.6192 11.8936 17.5648 12.1189 17.4594 12.3279C17.3539 12.537 17.1997 12.7253 17.0062 12.8814C16.8126 13.0374 16.5839 13.1578 16.334 13.2352C16.0841 13.3126 15.8184 13.3454 15.5532 13.3314Z" fill="#DDDDDD" fill-opacity="0.7"/>
<path d="M25.2802 26.6686H9.71982C9.20348 26.6686 8.70829 26.4927 8.34318 26.1798C7.97807 25.8668 7.77295 25.4424 7.77295 24.9998C7.77295 24.5572 7.97807 24.1328 8.34318 23.8198C8.70829 23.5069 9.20348 23.3311 9.71982 23.3311H25.2802C25.7966 23.3311 26.2918 23.5069 26.6569 23.8198C27.022 24.1328 27.2271 24.5572 27.2271 24.9998C27.2271 25.4424 27.022 25.8668 26.6569 26.1798C26.2918 26.4927 25.7966 26.6686 25.2802 26.6686Z" fill="#DDDDDD" fill-opacity="0.7"/>
<path d="M25.2803 33.3313H9.71987C9.22507 33.3053 8.76048 33.1185 8.42084 32.8089C8.08119 32.4994 7.89209 32.0905 7.89209 31.6656C7.89209 31.2407 8.08119 30.8318 8.42084 30.5223C8.76048 30.2128 9.22507 30.026 9.71987 30H25.2803C25.7751 30.026 26.2397 30.2128 26.5793 30.5223C26.919 30.8318 27.1081 31.2407 27.1081 31.6656C27.1081 32.0905 26.919 32.4994 26.5793 32.8089C26.2397 33.1185 25.7751 33.3053 25.2803 33.3313Z" fill="#DDDDDD" fill-opacity="0.7"/>
</g>
<defs>
<clipPath id="clip0_718_386">
<rect width="35" height="40" fill="white"/>
</clipPath>
</defs>
</svg>
