<svg width="36" height="19" viewBox="0 0 36 19" fill="none" xmlns="http://www.w3.org/2000/svg">
<g clip-path="url(#clip0_460_4)">
<path fill-rule="evenodd" clip-rule="evenodd" d="M8.99 0.380002C8.5 0.870002 8.5 1.66 8.99 2.15L17.3 10.46C17.69 10.85 18.32 10.85 18.71 10.46L27.02 2.15C27.51 1.66 27.51 0.870002 27.02 0.380002C26.53 -0.109998 25.74 -0.109998 25.25 0.380002L18 7.62L10.75 0.370004C10.27 -0.109996 9.47 -0.109998 8.99 0.380002Z" fill="#EEEEEE"/>
</g>
<g clip-path="url(#clip1_460_4)">
<path fill-rule="evenodd" clip-rule="evenodd" d="M1.78204 5.48363C0.900044 6.10727 0.900044 7.11273 1.78204 7.73636L16.74 18.3127C17.442 18.8091 18.576 18.8091 19.278 18.3127L34.236 7.73636C35.118 7.11273 35.118 6.10727 34.236 5.48363C33.354 4.86 31.932 4.86 31.05 5.48363L18 14.6982L4.95004 5.47091C4.08604 4.86 2.64604 4.86 1.78204 5.48363Z" fill="#EEEEEE"/>
</g>
<defs>
<clipPath id="clip0_460_4">
<rect width="11" height="20" fill="white" transform="translate(8 11) rotate(-90)"/>
</clipPath>
<clipPath id="clip1_460_4">
<rect width="14" height="36" fill="white" transform="translate(0 19) rotate(-90)"/>
</clipPath>
</defs>
</svg>
