<svg width="80" height="80" viewBox="0 0 80 80" fill="none" xmlns="http://www.w3.org/2000/svg">
<path d="M40.0001 0.526367C18.1969 0.526367 0.519531 18.4364 0.519531 40.5264C0.519531 59.2697 13.2586 74.953 30.4326 79.293C30.2484 78.753 30.1299 78.1264 30.1299 77.3497V70.513C28.5277 70.513 25.843 70.513 25.1685 70.513C22.4674 70.513 20.0657 69.3364 18.901 67.1497C17.608 64.7197 17.3843 61.003 14.1798 58.7297C13.229 57.973 13.9528 57.1097 15.0484 57.2264C17.0717 57.8064 18.7497 59.213 20.3289 61.2997C21.9015 63.3897 22.6418 63.863 25.5798 63.863C27.0044 63.863 29.1363 63.7797 31.1433 63.4597C32.2224 60.683 34.0878 58.1264 36.3678 56.9197C23.2208 55.5497 16.9467 48.923 16.9467 39.9264C16.9467 36.053 18.5753 32.3064 21.3422 29.1497C20.4342 26.0164 19.2925 19.6264 21.691 17.193C27.6065 17.193 31.1827 21.0797 32.0414 22.1297C34.9893 21.1064 38.2267 20.5264 41.6286 20.5264C45.0371 20.5264 48.2877 21.1064 51.2421 22.1364C52.091 21.093 55.6705 17.193 61.5992 17.193C64.0075 19.6297 62.8527 26.0464 61.9348 29.173C64.6853 32.323 66.304 36.0597 66.304 39.9264C66.304 48.9164 60.0397 55.5397 46.9124 56.9164C50.5249 58.8264 53.1602 64.193 53.1602 68.2364V77.3497C53.1602 77.6964 53.0846 77.9464 53.0451 78.243C68.4293 72.7797 79.4806 57.9797 79.4806 40.5264C79.4806 18.4364 61.8032 0.526367 40.0001 0.526367Z" fill="#DDDBDB"/>
</svg>
