<svg width="80" height="80" viewBox="0 0 80 80" fill="none" xmlns="http://www.w3.org/2000/svg">
<path d="M24.4178 0.19043C11.259 0.19043 0.525146 11.0152 0.525146 24.2857V55.7142C0.525146 68.9829 11.2586 79.8095 24.4178 79.8095H55.5822C68.7397 79.8095 79.4749 68.9832 79.4749 55.7142V24.2857C79.4749 11.0149 68.7393 0.19043 55.5822 0.19043H24.4178ZM24.4178 6.47614H55.5822C65.3704 6.47614 73.242 14.4125 73.242 24.2857V55.7142C73.242 65.585 65.37 73.5238 55.5822 73.5238H24.4178C14.6276 73.5238 6.75802 65.5854 6.75802 55.7142V24.2857C6.75802 14.4121 14.6273 6.47614 24.4178 6.47614ZM60.7763 14.8571C58.4805 14.8571 56.621 16.7323 56.621 19.0476C56.621 21.3628 58.4805 23.238 60.7763 23.238C63.0721 23.238 64.9315 21.3628 64.9315 19.0476C64.9315 16.7323 63.0721 14.8571 60.7763 14.8571ZM40 19.0476C28.5631 19.0476 19.2238 28.466 19.2238 40C19.2238 51.5339 28.5631 60.9523 40 60.9523C51.437 60.9523 60.7763 51.5339 60.7763 40C60.7763 28.466 51.437 19.0476 40 19.0476ZM40 25.3333C48.0678 25.3333 54.5434 31.8638 54.5434 40C54.5434 48.1361 48.0678 54.6666 40 54.6666C31.9322 54.6666 25.4567 48.1361 25.4567 40C25.4567 31.8638 31.9322 25.3333 40 25.3333Z" fill="#DDDBDB"/>
</svg>
