<svg width="80" height="80" viewBox="0 0 80 80" fill="none" xmlns="http://www.w3.org/2000/svg">
<path d="M70.4762 0H9.52381C4.26339 0 0 4.26339 0 9.52381V70.4762C0 75.7366 4.26339 80 9.52381 80H70.4762C75.7366 80 80 75.7366 80 70.4762V9.52381C80 4.26339 75.7366 0 70.4762 0ZM24.7619 30.4762V66.6667H13.3333V30.4762H24.7619ZM13.3333 19.9405C13.3333 17.2768 15.6176 15.2381 19.0476 15.2381C22.4777 15.2381 24.628 17.2768 24.7619 19.9405C24.7619 22.6116 22.6265 24.7619 19.0476 24.7619C15.6176 24.7619 13.3333 22.6116 13.3333 19.9405ZM66.6667 66.6667H55.2381C55.2381 66.6667 55.2381 49.0253 55.2381 47.619C55.2381 43.8095 53.3333 40 48.5714 39.9256H48.4226C43.8095 39.9256 41.9048 43.8467 41.9048 47.619C41.9048 49.3527 41.9048 66.6667 41.9048 66.6667H30.4762V30.4762H41.9048V35.3497C41.9048 35.3497 45.5804 30.4762 52.9688 30.4762C60.5357 30.4762 66.6667 35.6771 66.6667 46.2128V66.6667Z" fill="#DDDBDB"/>
</svg>
