<svg width="959" height="207" viewBox="0 0 959 207" fill="none" xmlns="http://www.w3.org/2000/svg">
<path id="Fullzer4" d="M353.911 60.888L354.194 58.9081L354.185 58.9069L353.911 60.888ZM358.775 63.064L357.19 64.2834L357.218 64.3203L357.248 64.3559L358.775 63.064ZM350.711 75.608L350.54 77.6007L350.558 77.6022L350.576 77.6034L350.711 75.608ZM346.231 75.224L346.402 73.2313L346.4 73.2311L346.231 75.224ZM331.127 74.2L331.024 76.1973L331.025 76.1974L331.127 74.2ZM309.751 73.816V71.816H307.907L307.758 73.6544L309.751 73.816ZM306.551 108.376L304.562 108.164L304.322 110.415L306.586 110.376L306.551 108.376ZM328.567 107.992V105.992H328.55L328.532 105.992L328.567 107.992ZM334.839 109.656L333.369 111.013L333.397 111.042L333.425 111.07L334.839 109.656ZM333.943 121.048L335.321 122.498L335.339 122.48L335.357 122.462L333.943 121.048ZM304.759 123.48V121.48H303.019L302.778 123.204L304.759 123.48ZM303.991 128.984L302.01 128.708L302.009 128.72L302.007 128.731L303.991 128.984ZM292.471 159.064L291.047 157.66L291.042 157.665L291.036 157.67L292.471 159.064ZM252.407 164.312L251.476 166.082L251.488 166.088L251.5 166.095L252.407 164.312ZM241.655 155.096L243.337 154.014L243.334 154.009L241.655 155.096ZM241.655 144.472L239.991 143.363L239.969 143.395L239.948 143.429L241.655 144.472ZM248.311 143.192L247.135 144.809L247.168 144.833L247.202 144.856L248.311 143.192ZM252.151 147.16L253.742 145.948L253.734 145.938L253.726 145.927L252.151 147.16ZM279.543 149.336L278.004 148.059L278.001 148.062L279.543 149.336ZM285.943 130.52L287.931 130.739L287.931 130.737L285.943 130.52ZM286.711 123.48L288.699 123.697L288.941 121.48H286.711V123.48ZM275.447 121.816L274.186 123.368L274.209 123.387L274.232 123.405L275.447 121.816ZM275.447 111.064L276.861 112.478L276.883 112.457L276.903 112.435L275.447 111.064ZM288.503 108.76L288.577 110.759L290.304 110.695L290.491 108.977L288.503 108.76ZM291.831 74.584L293.823 74.7616L294.036 72.3712L291.647 72.5925L291.831 74.584ZM272.375 79.064L271.387 77.3251L271.387 77.3251L272.375 79.064ZM269.303 96.856L267.622 97.9402L267.631 97.9529L267.639 97.9654L269.303 96.856ZM267.511 103.256L268.601 104.933L268.63 104.914L268.658 104.894L267.511 103.256ZM255.863 102.872L257.151 101.342L257.143 101.336L255.863 102.872ZM252.919 97.624L254.804 96.9552L254.804 96.9552L252.919 97.624ZM267.767 65.752L266.965 63.9197L266.96 63.922L267.767 65.752ZM353.628 62.8679C355.848 63.185 356.819 63.8009 357.19 64.2834L360.36 61.8446C359.025 60.1084 356.752 59.2736 354.194 58.9081L353.628 62.8679ZM357.248 64.3559C357.815 65.0256 358.183 65.9828 358.183 67.416H362.183C362.183 65.2652 361.612 63.3211 360.302 61.7721L357.248 64.3559ZM358.183 67.416C358.183 70.0262 357.489 71.5181 356.507 72.3673C355.491 73.2455 353.744 73.8084 350.846 73.6125L350.576 77.6034C353.993 77.8343 356.981 77.2452 359.123 75.3927C361.299 73.5112 362.183 70.6937 362.183 67.416H358.183ZM350.882 73.6153L346.402 73.2313L346.06 77.2167L350.54 77.6007L350.882 73.6153ZM346.4 73.2311C341.343 72.8026 336.286 72.4597 331.229 72.2026L331.025 76.1974C336.038 76.4523 341.05 76.7921 346.062 77.2169L346.4 73.2311ZM331.23 72.2027C326.243 71.9447 321.003 71.816 315.511 71.816V75.816C320.941 75.816 326.112 75.9433 331.024 76.1973L331.23 72.2027ZM315.511 71.816H309.751V75.816H315.511V71.816ZM307.758 73.6544C306.735 86.2703 305.669 97.7732 304.562 108.164L308.54 108.588C309.651 98.1575 310.719 86.6204 311.744 73.9776L307.758 73.6544ZM306.586 110.376L328.602 109.992L328.532 105.992L306.516 106.376L306.586 110.376ZM328.567 109.992C330.044 109.992 331.17 110.123 331.99 110.341C332.819 110.561 333.204 110.833 333.369 111.013L336.309 108.299C335.45 107.37 334.277 106.81 333.016 106.475C331.746 106.138 330.247 105.992 328.567 105.992V109.992ZM333.425 111.07C334.087 111.732 334.503 112.677 334.503 114.136H338.503C338.503 111.84 337.81 109.798 336.253 108.242L333.425 111.07ZM334.503 114.136C334.503 116.622 333.786 118.376 332.529 119.634L335.357 122.462C337.513 120.307 338.503 117.453 338.503 114.136H334.503ZM332.566 119.598C331.343 120.76 329.471 121.48 326.647 121.48V125.48C330.138 125.48 333.13 124.579 335.321 122.498L332.566 119.598ZM326.647 121.48H304.759V125.48H326.647V121.48ZM302.778 123.204L302.01 128.708L305.972 129.26L306.74 123.756L302.778 123.204ZM302.007 128.731C300.236 142.649 296.478 152.15 291.047 157.66L293.895 160.468C300.24 154.031 304.162 143.479 305.975 129.237L302.007 128.731ZM291.036 157.67C285.694 163.17 278.239 166.024 268.407 166.024V170.024C279.055 170.024 287.643 166.904 293.906 160.458L291.036 157.67ZM268.407 166.024C262.899 166.024 257.879 164.852 253.314 162.529L251.5 166.095C256.663 168.721 262.31 170.024 268.407 170.024V166.024ZM253.338 162.542C248.693 160.097 245.408 157.236 243.337 154.014L239.973 156.178C242.51 160.124 246.393 163.407 251.476 166.082L253.338 162.542ZM243.334 154.009C242.641 152.938 242.247 151.583 242.247 149.848H238.247C238.247 152.209 238.792 154.352 239.976 156.183L243.334 154.009ZM242.247 149.848C242.247 148.116 242.64 146.695 243.362 145.515L239.948 143.429C238.793 145.321 238.247 147.484 238.247 149.848H242.247ZM243.319 145.581C244.086 144.431 244.767 144.168 245.367 144.168V140.168C243.066 140.168 241.272 141.441 239.991 143.363L243.319 145.581ZM245.367 144.168C245.913 144.168 246.49 144.341 247.135 144.809L249.487 141.575C248.254 140.678 246.869 140.168 245.367 140.168V144.168ZM247.202 144.856C247.947 145.353 249.065 146.462 250.576 148.393L253.726 145.927C252.165 143.932 250.723 142.396 249.42 141.528L247.202 144.856ZM250.56 148.372C254.984 154.179 260.622 157.224 267.383 157.224V153.224C262.027 153.224 257.51 150.893 253.742 145.948L250.56 148.372ZM267.383 157.224C272.875 157.224 277.483 154.97 281.085 150.61L278.001 148.062C275.118 151.552 271.619 153.224 267.383 153.224V157.224ZM281.082 150.613C284.774 146.164 286.975 139.434 287.931 130.739L283.955 130.301C283.034 138.673 280.968 144.487 278.004 148.059L281.082 150.613ZM287.931 130.737L288.699 123.697L284.723 123.263L283.955 130.303L287.931 130.737ZM286.711 121.48H280.567V125.48H286.711V121.48ZM280.567 121.48C279.009 121.48 277.737 121.049 276.662 120.227L274.232 123.405C276.058 124.801 278.2 125.48 280.567 125.48V121.48ZM276.708 120.264C275.89 119.599 275.399 118.636 275.399 117.08H271.399C271.399 119.62 272.273 121.814 274.186 123.368L276.708 120.264ZM275.399 117.08C275.399 114.764 275.992 113.347 276.861 112.478L274.033 109.65C272.171 111.512 271.399 114.105 271.399 117.08H275.399ZM276.903 112.435C277.778 111.505 279.18 110.888 281.463 110.888V106.888C278.455 106.888 275.846 107.722 273.991 109.693L276.903 112.435ZM281.463 110.888C283.876 110.888 286.247 110.845 288.577 110.759L288.429 106.761C286.151 106.846 283.829 106.888 281.463 106.888V110.888ZM290.491 108.977C291.517 99.573 292.628 88.1671 293.823 74.7616L289.839 74.4064C288.645 87.7956 287.537 99.1737 286.515 108.543L290.491 108.977ZM291.647 72.5925C282.399 73.4488 275.54 74.9653 271.387 77.3251L273.363 80.8029C276.719 78.896 282.831 77.4258 292.015 76.5755L291.647 72.5925ZM271.387 77.3251C267.032 79.7994 264.743 83.6065 264.743 88.536H268.743C268.743 85.1028 270.209 82.5952 273.363 80.8029L271.387 77.3251ZM264.743 88.536C264.743 91.8547 265.726 95.0004 267.622 97.9402L270.984 95.7717C269.467 93.421 268.743 91.02 268.743 88.536H264.743ZM267.639 97.9654C267.977 98.4721 268.071 98.8606 268.071 99.16H272.071C272.071 97.9234 271.653 96.7759 270.967 95.7466L267.639 97.9654ZM268.071 99.16C268.071 99.8252 267.744 100.652 266.364 101.618L268.658 104.894C270.691 103.471 272.071 101.567 272.071 99.16H268.071ZM266.421 101.579C265.055 102.467 263.517 102.92 261.751 102.92V106.92C264.252 106.92 266.554 106.264 268.601 104.933L266.421 101.579ZM261.751 102.92C259.874 102.92 258.38 102.377 257.151 101.342L254.575 104.402C256.589 106.098 259.02 106.92 261.751 106.92V102.92ZM257.143 101.336C256.565 100.853 255.728 99.5604 254.804 96.9552L251.034 98.2928C251.987 100.978 253.113 103.184 254.583 104.408L257.143 101.336ZM254.804 96.9552C253.952 94.5551 253.511 91.8416 253.511 88.792H249.511C249.511 92.2278 250.008 95.4023 251.034 98.2928L254.804 96.9552ZM253.511 88.792C253.511 83.8602 254.767 79.71 257.209 76.249C259.661 72.7735 263.402 69.8626 268.574 67.582L266.96 63.922C261.295 66.4201 256.907 69.7385 253.941 73.943C250.964 78.162 249.511 83.1425 249.511 88.792H253.511ZM268.569 67.5843C279.115 62.9701 294.703 60.584 315.511 60.584V56.584C294.505 56.584 278.264 58.9765 266.965 63.9197L268.569 67.5843ZM315.511 60.584C329.951 60.584 342.656 61.3487 353.637 62.8691L354.185 58.9069C342.979 57.3553 330.084 56.584 315.511 56.584V60.584ZM341.228 162.392L339.564 163.501L339.579 163.524L339.595 163.547L341.228 162.392ZM338.924 131.544L340.898 131.862L340.899 131.858L338.924 131.544ZM343.148 114.52L341.251 113.888L341.248 113.896L343.148 114.52ZM346.732 109.016L347.903 110.637L347.903 110.637L346.732 109.016ZM357.868 108.248L356.551 109.753L356.594 109.791L356.64 109.827L357.868 108.248ZM357.612 117.848L359.543 118.37L359.55 118.342L359.557 118.313L357.612 117.848ZM355.564 126.424L353.603 126.032L353.601 126.041L353.599 126.05L355.564 126.424ZM353.644 148.184L351.896 149.155L351.921 149.2L351.948 149.244L353.644 148.184ZM360.428 145.368L358.841 144.151L358.828 144.168L358.815 144.185L360.428 145.368ZM366.572 133.72L364.732 132.936L364.727 132.949L364.721 132.962L366.572 133.72ZM372.972 114.52L374.903 115.041L374.904 115.035L372.972 114.52ZM376.044 109.016L374.829 107.427L374.806 107.445L374.783 107.464L376.044 109.016ZM386.54 108.12L385.431 109.784L385.498 109.829L385.569 109.868L386.54 108.12ZM384.492 128.216L382.54 127.78L382.538 127.789L384.492 128.216ZM381.932 152.28L380.315 153.456L380.342 153.494L380.37 153.529L381.932 152.28ZM390.636 150.488L391.965 151.983L391.968 151.98L390.636 150.488ZM400.108 140.248L398.589 138.946L398.582 138.956L398.574 138.965L400.108 140.248ZM406.124 139.992L404.396 141L404.427 141.052L404.46 141.101L406.124 139.992ZM404.716 152.152L403.202 150.845L403.182 150.868L403.163 150.892L404.716 152.152ZM392.812 163.288L391.687 161.634L391.68 161.639L391.672 161.645L392.812 163.288ZM369.388 162.904L367.669 163.926L367.679 163.943L367.689 163.96L369.388 162.904ZM366.572 149.592H368.572L364.632 149.107L366.572 149.592ZM360.044 163.032L361.498 164.405L361.507 164.395L361.517 164.385L360.044 163.032ZM350.7 165.64C347.592 165.64 345.011 164.277 342.861 161.237L339.595 163.547C342.394 167.504 346.128 169.64 350.7 169.64V165.64ZM342.892 161.283C340.767 158.095 339.644 154.067 339.644 149.08H335.644C335.644 154.675 336.91 159.521 339.564 163.501L342.892 161.283ZM339.644 149.08C339.644 142.767 340.065 137.03 340.898 131.862L336.95 131.226C336.076 136.639 335.644 142.593 335.644 149.08H339.644ZM340.899 131.858C341.734 126.602 343.114 121.031 345.048 115.144L341.248 113.896C339.257 119.955 337.821 125.734 336.949 131.23L340.899 131.858ZM345.045 115.152C345.82 112.827 346.823 111.417 347.903 110.637L345.561 107.395C343.569 108.834 342.182 111.093 341.251 113.888L345.045 115.152ZM347.903 110.637C348.925 109.899 350.839 109.352 354.028 109.352V105.352C350.561 105.352 347.611 105.914 345.561 107.395L347.903 110.637ZM354.028 109.352C354.873 109.352 355.499 109.42 355.942 109.524C356.159 109.574 356.312 109.629 356.413 109.675C356.463 109.698 356.498 109.718 356.52 109.732C356.542 109.745 356.551 109.753 356.551 109.753L359.185 106.743C357.908 105.625 355.956 105.352 354.028 105.352V109.352ZM356.64 109.827C356.81 109.959 357.02 110.203 357.02 110.936H361.02C361.02 109.28 360.462 107.732 359.096 106.669L356.64 109.827ZM357.02 110.936C357.02 110.92 357.02 110.952 357.01 111.054C356.999 111.148 356.982 111.276 356.956 111.442C356.904 111.774 356.822 112.216 356.708 112.777C356.48 113.897 356.134 115.429 355.667 117.383L359.557 118.313C360.029 116.342 360.387 114.759 360.628 113.575C360.851 112.477 361.02 111.519 361.02 110.936H357.02ZM355.681 117.326C354.819 120.516 354.125 123.419 353.603 126.032L357.525 126.816C358.027 124.309 358.698 121.494 359.543 118.37L355.681 117.326ZM353.599 126.05C351.899 134.976 351.004 141.136 351.004 144.344H355.004C355.004 141.578 355.816 135.792 357.529 126.798L353.599 126.05ZM351.004 144.344C351.004 146.191 351.206 147.914 351.896 149.155L355.392 147.213C355.229 146.918 355.004 146.081 355.004 144.344H351.004ZM351.948 149.244C352.806 150.617 354.198 151.208 355.692 151.208V147.208C355.463 147.208 355.378 147.167 355.37 147.163C355.367 147.162 355.367 147.161 355.367 147.162C355.368 147.162 355.369 147.163 355.369 147.162C355.368 147.162 355.366 147.16 355.361 147.155C355.357 147.149 355.35 147.139 355.34 147.124L351.948 149.244ZM355.692 151.208C356.992 151.208 358.146 150.571 359.096 149.802C360.071 149.011 361.051 147.901 362.041 146.551L358.815 144.185C357.928 145.395 357.18 146.205 356.576 146.694C355.947 147.205 355.672 147.208 355.692 147.208V151.208ZM362.015 146.585C364.137 143.818 366.264 139.745 368.423 134.478L364.721 132.962C362.613 138.105 360.645 141.798 358.841 144.151L362.015 146.585ZM368.412 134.504C370.678 129.188 372.839 122.693 374.903 115.041L371.041 113.999C369.009 121.536 366.903 127.842 364.732 132.936L368.412 134.504ZM374.904 115.035C375.53 112.688 376.395 111.307 377.305 110.568L374.783 107.464C372.962 108.943 371.779 111.232 371.04 114.005L374.904 115.035ZM377.259 110.605C378.217 109.872 379.843 109.352 382.444 109.352V105.352C379.413 105.352 376.772 105.941 374.829 107.427L377.259 110.605ZM382.444 109.352C384.368 109.352 385.197 109.629 385.431 109.784L387.649 106.456C386.347 105.587 384.445 105.352 382.444 105.352V109.352ZM385.569 109.868C385.571 109.87 385.564 109.866 385.557 109.858C385.551 109.851 385.562 109.86 385.58 109.901C385.622 109.993 385.692 110.225 385.692 110.68H389.692C389.692 109.041 389.181 107.299 387.511 106.372L385.569 109.868ZM385.692 110.68C385.692 111.539 385.462 113.362 384.924 116.305C384.398 119.191 383.604 123.013 382.54 127.78L386.444 128.652C387.513 123.862 388.319 119.982 388.86 117.023C389.389 114.121 389.692 111.954 389.692 110.68H385.692ZM382.538 127.789C381.341 133.262 380.439 137.707 379.835 141.115C379.24 144.471 378.908 146.96 378.908 148.44H382.908C382.908 147.36 383.173 145.198 383.773 141.813C384.364 138.48 385.254 134.093 386.446 128.643L382.538 127.789ZM378.908 148.44C378.908 150.321 379.302 152.064 380.315 153.456L383.549 151.104C383.197 150.619 382.908 149.802 382.908 148.44H378.908ZM380.37 153.529C381.439 154.865 382.914 155.56 384.62 155.56V151.56C384.108 151.56 383.79 151.401 383.494 151.031L380.37 153.529ZM384.62 155.56C387.082 155.56 389.559 154.121 391.965 151.983L389.307 148.993C387.105 150.951 385.571 151.56 384.62 151.56V155.56ZM391.968 151.98C394.468 149.748 397.7 146.245 401.642 141.531L398.574 138.965C394.666 143.638 391.583 146.962 389.304 148.996L391.968 151.98ZM401.627 141.55C402.365 140.687 402.999 140.456 403.564 140.456V136.456C401.569 136.456 399.899 137.419 398.589 138.946L401.627 141.55ZM403.564 140.456C403.904 140.456 404.128 140.539 404.396 141L407.852 138.984C406.926 137.397 405.442 136.456 403.564 136.456V140.456ZM404.46 141.101C404.845 141.679 405.148 142.648 405.148 144.216H409.148C409.148 142.2 408.769 140.353 407.788 138.883L404.46 141.101ZM405.148 144.216C405.148 147.33 404.409 149.447 403.202 150.845L406.23 153.459C408.265 151.102 409.148 147.929 409.148 144.216H405.148ZM403.163 150.892C399.601 155.282 395.774 158.856 391.687 161.634L393.937 164.942C398.384 161.918 402.492 158.067 406.269 153.412L403.163 150.892ZM391.672 161.645C387.845 164.3 383.469 165.64 378.476 165.64V169.64C384.235 169.64 389.417 168.078 393.952 164.931L391.672 161.645ZM378.476 165.64C374.987 165.64 372.642 164.35 371.087 161.848L367.689 163.96C370.059 167.772 373.773 169.64 378.476 169.64V165.64ZM371.107 161.882C369.489 159.16 368.572 155.133 368.572 149.592H364.572C364.572 155.486 365.532 160.333 367.669 163.926L371.107 161.882ZM364.632 149.107C363.232 154.707 361.175 158.845 358.571 161.679L361.517 164.385C364.715 160.904 367.011 156.083 368.512 150.077L364.632 149.107ZM358.59 161.659C355.958 164.445 353.338 165.64 350.7 165.64V169.64C354.718 169.64 358.327 167.763 361.498 164.405L358.59 161.659ZM447.841 139.992L446.113 141L446.144 141.052L446.177 141.101L447.841 139.992ZM446.433 152.152L444.919 150.845L444.899 150.868L444.88 150.892L446.433 152.152ZM434.401 163.288L433.292 161.624L433.284 161.629L433.276 161.634L434.401 163.288ZM403.041 157.4L401.27 158.33L401.275 158.338L401.279 158.347L403.041 157.4ZM401.633 95.32L399.674 94.9181L399.671 94.9302L401.633 95.32ZM413.537 61.016L411.787 60.0473L411.781 60.0594L413.537 61.016ZM441.953 52.44L440.238 53.469L440.252 53.4915L440.266 53.5137L441.953 52.44ZM437.089 104.024L435.245 103.249L435.245 103.249L437.089 104.024ZM414.177 143.832L412.565 142.649L412.063 143.333L412.206 144.169L414.177 143.832ZM417.121 151.384L415.626 152.713L415.645 152.734L415.665 152.755L417.121 151.384ZM431.713 150.616L432.905 152.222L432.921 152.21L432.937 152.197L431.713 150.616ZM441.825 140.248L440.306 138.946L440.301 138.953L440.295 138.96L441.825 140.248ZM422.881 69.976L420.993 69.3163L420.993 69.3163L422.881 69.976ZM416.353 96.344L414.384 95.9919L414.384 95.9919L416.353 96.344ZM413.281 126.552L411.281 126.517L411.15 133.918L414.991 127.59L413.281 126.552ZM427.745 96.6L429.627 97.2757L429.629 97.2706L427.745 96.6ZM445.281 140.456C445.621 140.456 445.845 140.539 446.113 141L449.569 138.984C448.643 137.397 447.159 136.456 445.281 136.456V140.456ZM446.177 141.101C446.562 141.679 446.865 142.648 446.865 144.216H450.865C450.865 142.2 450.486 140.353 449.505 138.883L446.177 141.101ZM446.865 144.216C446.865 147.33 446.126 149.447 444.919 150.845L447.947 153.459C449.982 151.102 450.865 147.929 450.865 144.216H446.865ZM444.88 150.892C441.323 155.276 437.458 158.846 433.292 161.624L435.51 164.952C440.048 161.927 444.204 158.073 447.986 153.412L444.88 150.892ZM433.276 161.634C429.361 164.296 424.894 165.64 419.809 165.64V169.64C425.647 169.64 430.907 168.082 435.526 164.942L433.276 161.634ZM419.809 165.64C416.367 165.64 413.464 164.861 411.027 163.373C408.587 161.883 406.5 159.611 404.803 156.453L401.279 158.347C403.251 162.015 405.794 164.864 408.943 166.787C412.095 168.712 415.742 169.64 419.809 169.64V165.64ZM404.812 156.47C401.427 150.023 399.665 141.541 399.665 130.904H395.665C395.665 141.942 397.487 151.124 401.27 158.33L404.812 156.47ZM399.665 130.904C399.665 120.657 400.968 108.93 403.595 95.7098L399.671 94.9302C397.008 108.334 395.665 120.33 395.665 130.904H399.665ZM403.592 95.7219C406.293 82.5578 410.203 71.3192 415.293 61.9726L411.781 60.0594C406.46 69.8275 402.435 81.4582 399.674 94.9181L403.592 95.7219ZM415.287 61.9846C420.42 52.7114 426.156 48.68 432.353 48.68V44.68C424.043 44.68 417.235 50.2059 411.787 60.0474L415.287 61.9846ZM432.353 48.68C435.671 48.68 438.255 50.1636 440.238 53.469L443.668 51.411C441.043 47.0364 437.227 44.68 432.353 44.68V48.68ZM440.266 53.5137C442.363 56.8098 443.537 61.7885 443.537 68.696H447.537C447.537 61.4381 446.321 55.5795 443.64 51.3662L440.266 53.5137ZM443.537 68.696C443.537 78.4959 440.815 89.9994 435.245 103.249L438.933 104.799C444.627 91.2539 447.537 79.2054 447.537 68.696H443.537ZM435.245 103.249C429.681 116.485 422.125 129.619 412.565 142.649L415.789 145.015C425.514 131.762 433.233 118.357 438.933 104.799L435.245 103.249ZM412.206 144.169C412.826 147.8 413.891 150.76 415.626 152.713L418.616 150.055C417.621 148.936 416.723 146.861 416.148 143.495L412.206 144.169ZM415.665 152.755C417.453 154.655 419.796 155.56 422.497 155.56V151.56C420.76 151.56 419.52 151.015 418.577 150.013L415.665 152.755ZM422.497 155.56C426.396 155.56 429.893 154.457 432.905 152.222L430.521 149.01C428.243 150.7 425.595 151.56 422.497 151.56V155.56ZM432.937 152.197C435.754 150.017 439.234 146.43 443.355 141.536L440.295 138.96C436.224 143.794 432.963 147.119 430.489 149.035L432.937 152.197ZM443.344 141.55C444.082 140.687 444.716 140.456 445.281 140.456V136.456C443.286 136.456 441.616 137.419 440.306 138.946L443.344 141.55ZM429.537 57.352C428.415 57.352 427.466 57.8614 426.724 58.4898C425.985 59.1161 425.319 59.9678 424.706 60.9462C423.479 62.9055 422.247 65.7265 420.993 69.3163L424.769 70.6357C425.989 67.1428 427.105 64.6518 428.096 63.0698C428.592 62.2775 429.004 61.8012 429.31 61.5422C429.613 61.2853 429.677 61.352 429.537 61.352V57.352ZM420.993 69.3163C418.472 76.5312 416.273 85.4311 414.384 95.9919L418.322 96.6961C420.188 86.2649 422.341 77.5862 424.769 70.6357L420.993 69.3163ZM414.384 95.9919C412.49 106.582 411.454 116.757 411.281 126.517L415.281 126.587C415.449 117.061 416.461 107.098 418.322 96.6961L414.384 95.9919ZM414.991 127.59C421.112 117.502 425.994 107.398 429.627 97.2757L425.863 95.9243C422.328 105.77 417.567 115.634 411.571 125.514L414.991 127.59ZM429.629 97.2706C433.269 87.0455 435.121 77.6415 435.121 69.08H431.121C431.121 77.0732 429.389 86.0158 425.861 95.9293L429.629 97.2706ZM435.121 69.08C435.121 65.7708 434.824 63.0523 434.102 61.0926C433.736 60.1007 433.215 59.1721 432.447 58.4769C431.636 57.7431 430.636 57.352 429.537 57.352V61.352C429.632 61.352 429.678 61.3662 429.763 61.4431C429.891 61.5586 430.116 61.846 430.348 62.4754C430.821 63.7584 431.121 65.9039 431.121 69.08H435.121ZM489.591 139.992L487.863 141L487.894 141.052L487.927 141.101L489.591 139.992ZM488.183 152.152L486.669 150.845L486.649 150.868L486.63 150.892L488.183 152.152ZM476.151 163.288L475.042 161.624L475.034 161.629L475.026 161.634L476.151 163.288ZM444.791 157.4L443.02 158.33L443.025 158.338L443.029 158.347L444.791 157.4ZM443.383 95.32L441.424 94.9181L441.421 94.9302L443.383 95.32ZM455.287 61.016L453.537 60.0473L453.531 60.0594L455.287 61.016ZM483.703 52.44L481.988 53.469L482.002 53.4915L482.016 53.5137L483.703 52.44ZM478.839 104.024L476.995 103.249L476.995 103.249L478.839 104.024ZM455.927 143.832L454.315 142.649L453.813 143.333L453.956 144.169L455.927 143.832ZM458.871 151.384L457.376 152.713L457.395 152.734L457.415 152.755L458.871 151.384ZM473.463 150.616L474.655 152.222L474.671 152.21L474.687 152.197L473.463 150.616ZM483.575 140.248L482.056 138.946L482.051 138.953L482.045 138.96L483.575 140.248ZM464.631 69.976L462.743 69.3163L462.743 69.3163L464.631 69.976ZM458.103 96.344L456.134 95.9919L456.134 95.9919L458.103 96.344ZM455.031 126.552L453.031 126.517L452.9 133.918L456.741 127.59L455.031 126.552ZM469.495 96.6L471.377 97.2757L471.379 97.2706L469.495 96.6ZM487.031 140.456C487.371 140.456 487.595 140.539 487.863 141L491.319 138.984C490.393 137.397 488.909 136.456 487.031 136.456V140.456ZM487.927 141.101C488.312 141.679 488.615 142.648 488.615 144.216H492.615C492.615 142.2 492.236 140.353 491.255 138.883L487.927 141.101ZM488.615 144.216C488.615 147.33 487.876 149.447 486.669 150.845L489.697 153.459C491.732 151.102 492.615 147.929 492.615 144.216H488.615ZM486.63 150.892C483.073 155.276 479.208 158.846 475.042 161.624L477.26 164.952C481.798 161.927 485.954 158.073 489.736 153.412L486.63 150.892ZM475.026 161.634C471.111 164.296 466.644 165.64 461.559 165.64V169.64C467.397 169.64 472.657 168.082 477.276 164.942L475.026 161.634ZM461.559 165.64C458.117 165.64 455.214 164.861 452.777 163.373C450.337 161.883 448.25 159.611 446.553 156.453L443.029 158.347C445.001 162.015 447.544 164.864 450.693 166.787C453.845 168.712 457.492 169.64 461.559 169.64V165.64ZM446.562 156.47C443.177 150.023 441.415 141.541 441.415 130.904H437.415C437.415 141.942 439.237 151.124 443.02 158.33L446.562 156.47ZM441.415 130.904C441.415 120.657 442.718 108.93 445.345 95.7098L441.421 94.9302C438.758 108.334 437.415 120.33 437.415 130.904H441.415ZM445.342 95.7219C448.043 82.5578 451.953 71.3192 457.043 61.9726L453.531 60.0594C448.21 69.8275 444.185 81.4582 441.424 94.9181L445.342 95.7219ZM457.037 61.9846C462.17 52.7114 467.906 48.68 474.103 48.68V44.68C465.793 44.68 458.985 50.2059 453.537 60.0474L457.037 61.9846ZM474.103 48.68C477.421 48.68 480.005 50.1636 481.988 53.469L485.418 51.411C482.793 47.0364 478.977 44.68 474.103 44.68V48.68ZM482.016 53.5137C484.113 56.8098 485.287 61.7885 485.287 68.696H489.287C489.287 61.4381 488.071 55.5795 485.39 51.3662L482.016 53.5137ZM485.287 68.696C485.287 78.4959 482.565 89.9994 476.995 103.249L480.683 104.799C486.377 91.2539 489.287 79.2054 489.287 68.696H485.287ZM476.995 103.249C471.431 116.485 463.875 129.619 454.315 142.649L457.539 145.015C467.264 131.762 474.983 118.357 480.683 104.799L476.995 103.249ZM453.956 144.169C454.576 147.8 455.641 150.76 457.376 152.713L460.366 150.055C459.371 148.936 458.473 146.861 457.898 143.495L453.956 144.169ZM457.415 152.755C459.203 154.655 461.546 155.56 464.247 155.56V151.56C462.51 151.56 461.27 151.015 460.327 150.013L457.415 152.755ZM464.247 155.56C468.146 155.56 471.643 154.457 474.655 152.222L472.271 149.01C469.993 150.7 467.345 151.56 464.247 151.56V155.56ZM474.687 152.197C477.504 150.017 480.984 146.43 485.105 141.536L482.045 138.96C477.974 143.794 474.713 147.119 472.239 149.035L474.687 152.197ZM485.094 141.55C485.832 140.687 486.466 140.456 487.031 140.456V136.456C485.036 136.456 483.366 137.419 482.056 138.946L485.094 141.55ZM471.287 57.352C470.165 57.352 469.216 57.8614 468.474 58.4898C467.735 59.1161 467.069 59.9678 466.456 60.9462C465.229 62.9055 463.997 65.7265 462.743 69.3163L466.519 70.6357C467.739 67.1428 468.855 64.6518 469.846 63.0698C470.342 62.2775 470.754 61.8012 471.06 61.5422C471.363 61.2853 471.427 61.352 471.287 61.352V57.352ZM462.743 69.3163C460.222 76.5312 458.023 85.4311 456.134 95.9919L460.072 96.6961C461.938 86.2649 464.091 77.5862 466.519 70.6357L462.743 69.3163ZM456.134 95.9919C454.24 106.582 453.204 116.757 453.031 126.517L457.031 126.587C457.199 117.061 458.211 107.098 460.072 96.6961L456.134 95.9919ZM456.741 127.59C462.862 117.502 467.744 107.398 471.377 97.2757L467.613 95.9243C464.078 105.77 459.317 115.634 453.321 125.514L456.741 127.59ZM471.379 97.2706C475.019 87.0455 476.871 77.6415 476.871 69.08H472.871C472.871 77.0732 471.139 86.0158 467.611 95.9293L471.379 97.2706ZM476.871 69.08C476.871 65.7708 476.574 63.0523 475.852 61.0926C475.486 60.1007 474.965 59.1721 474.197 58.4769C473.386 57.7431 472.386 57.352 471.287 57.352V61.352C471.382 61.352 471.428 61.3662 471.513 61.4431C471.641 61.5586 471.866 61.846 472.098 62.4754C472.571 63.7584 472.871 65.9039 472.871 69.08H476.871ZM546.701 139.992L544.973 141L545.004 141.052L545.037 141.101L546.701 139.992ZM545.293 152.152L546.877 153.373L546.885 153.362L545.293 152.152ZM530.317 164.44L529.423 162.651L529.412 162.656L530.317 164.44ZM495.245 166.36L494.471 168.204L494.486 168.211L494.502 168.217L495.245 166.36ZM485.389 159.192L483.768 160.363L483.786 160.389L483.805 160.414L485.389 159.192ZM488.845 133.976L487.458 132.535L487.458 132.535L488.845 133.976ZM508.301 121.432L509.159 123.239L508.252 119.433L508.301 121.432ZM487.309 121.944L487.26 119.945L487.239 119.945L487.218 119.946L487.309 121.944ZM482.957 120.024L481.278 121.111L481.315 121.169L481.357 121.224L482.957 120.024ZM482.957 109.528L481.266 108.46L481.258 108.472L481.25 108.485L482.957 109.528ZM502.797 107.992L502.616 109.984L502.644 109.986L502.672 109.988L502.797 107.992ZM510.221 108.504L510.079 110.499L510.082 110.499L510.221 108.504ZM524.301 107.864L523.909 105.903L523.829 105.919L523.752 105.941L524.301 107.864ZM526.733 107.224L526.218 105.292L526.201 105.296L526.184 105.301L526.733 107.224ZM533.261 108.504L531.634 109.666L531.66 109.704L531.688 109.74L533.261 108.504ZM532.749 120.408L534.285 121.688L534.285 121.688L532.749 120.408ZM526.733 124.504L527.521 126.342L527.528 126.339L527.535 126.336L526.733 124.504ZM507.405 135.256L508.588 136.869L508.596 136.862L508.605 136.856L507.405 135.256ZM503.053 152.408L504.191 150.764L504.191 150.764L503.053 152.408ZM527.373 151.128L526.503 149.327L526.491 149.333L527.373 151.128ZM540.685 140.248L539.166 138.946L539.147 138.969L539.129 138.992L540.685 140.248ZM544.141 140.456C544.481 140.456 544.705 140.539 544.973 141L548.429 138.984C547.503 137.397 546.019 136.456 544.141 136.456V140.456ZM545.037 141.101C545.422 141.679 545.725 142.648 545.725 144.216H549.725C549.725 142.2 549.346 140.353 548.365 138.883L545.037 141.101ZM545.725 144.216C545.725 147.017 545.013 149.216 543.701 150.942L546.885 153.362C548.816 150.822 549.725 147.73 549.725 144.216H545.725ZM543.709 150.931C539.885 155.894 535.131 159.797 529.423 162.651L531.211 166.229C537.45 163.11 542.679 158.821 546.877 153.373L543.709 150.931ZM529.412 162.656C523.838 165.484 517.498 166.92 510.349 166.92V170.92C518.048 170.92 525.02 169.369 531.222 166.224L529.412 162.656ZM510.349 166.92C504.737 166.92 499.965 166.094 495.988 164.503L494.502 168.217C499.058 170.039 504.356 170.92 510.349 170.92V166.92ZM496.019 164.516C492 162.828 489.022 160.627 486.973 157.97L483.805 160.414C486.364 163.73 489.957 166.308 494.471 168.204L496.019 164.516ZM487.01 158.021C485.035 155.286 484.061 152.282 484.061 148.952H480.061C480.061 153.131 481.305 156.954 483.768 160.363L487.01 158.021ZM484.061 148.952C484.061 143.929 486.052 139.44 490.232 135.417L487.458 132.535C482.593 137.216 480.061 142.711 480.061 148.952H484.061ZM490.232 135.417C494.543 131.269 500.82 127.198 509.159 123.239L507.443 119.625C498.886 123.688 492.193 127.979 487.458 132.535L490.232 135.417ZM508.252 119.433L487.26 119.945L487.358 123.943L508.35 123.431L508.252 119.433ZM487.218 119.946C485.923 120.005 485.139 119.6 484.557 118.824L481.357 121.224C482.823 123.179 484.94 124.054 487.4 123.942L487.218 119.946ZM484.636 118.937C483.934 117.853 483.549 116.535 483.549 114.904H479.549C479.549 117.198 480.102 119.294 481.278 121.111L484.636 118.937ZM483.549 114.904C483.549 113.172 483.942 111.751 484.664 110.571L481.25 108.485C480.095 110.377 479.549 112.54 479.549 114.904H483.549ZM484.648 110.596C485.359 109.47 486.127 109.096 487.053 109.096V105.096C484.565 105.096 482.603 106.343 481.266 108.46L484.648 110.596ZM487.053 109.096C490.891 109.096 496.071 109.389 502.616 109.984L502.978 106C496.382 105.401 491.066 105.096 487.053 105.096V109.096ZM502.672 109.988C504.028 110.073 506.494 110.243 510.079 110.499L510.363 106.509C506.78 106.253 504.297 106.082 502.922 105.996L502.672 109.988ZM510.082 110.499C513.778 110.757 516.899 110.888 519.437 110.888V106.888C517.025 106.888 514.003 106.763 510.36 106.509L510.082 110.499ZM519.437 110.888C520.615 110.888 522.502 110.458 524.85 109.787L523.752 105.941C521.321 106.635 519.965 106.888 519.437 106.888V110.888ZM524.693 109.825C525.212 109.722 526.098 109.485 527.282 109.147L526.184 105.301C524.979 105.645 524.244 105.836 523.909 105.903L524.693 109.825ZM527.248 109.156C528.442 108.838 529.322 108.712 529.933 108.712V104.712C528.838 104.712 527.584 104.927 526.218 105.292L527.248 109.156ZM529.933 108.712C530.597 108.712 531.122 108.951 531.634 109.666L534.888 107.342C533.693 105.668 531.999 104.712 529.933 104.712V108.712ZM531.688 109.74C532.224 110.421 532.669 111.721 532.669 114.008H536.669C536.669 111.346 536.176 108.976 534.834 107.268L531.688 109.74ZM532.669 114.008C532.669 116.442 532.099 118.063 531.213 119.128L534.285 121.688C535.959 119.681 536.669 117.036 536.669 114.008H532.669ZM531.213 119.128C530.205 120.337 528.506 121.545 525.931 122.672L527.535 126.336C530.422 125.073 532.733 123.551 534.285 121.688L531.213 119.128ZM525.945 122.666C518.077 126.038 511.485 129.696 506.205 133.656L508.605 136.856C513.565 133.136 519.858 129.626 527.521 126.342L525.945 122.666ZM506.222 133.643C500.939 137.517 497.725 141.792 497.725 146.52H501.725C501.725 143.739 503.631 140.504 508.588 136.869L506.222 133.643ZM497.725 146.52C497.725 149.659 499.237 152.199 501.915 154.052L504.191 150.764C502.431 149.545 501.725 148.16 501.725 146.52H497.725ZM501.915 154.052C504.616 155.923 508.378 156.712 512.909 156.712V152.712C508.736 152.712 505.927 151.965 504.191 150.764L501.915 154.052ZM512.909 156.712C518.032 156.712 523.153 155.429 528.255 152.923L526.491 149.333C521.865 151.606 517.343 152.712 512.909 152.712V156.712ZM528.242 152.929C533.493 150.395 538.156 146.567 542.241 141.504L539.129 138.992C535.364 143.657 531.152 147.083 526.504 149.327L528.242 152.929ZM542.204 141.55C542.942 140.687 543.576 140.456 544.141 140.456V136.456C542.146 136.456 540.476 137.419 539.166 138.946L542.204 141.55ZM596.917 139.992L595.189 141L595.22 141.052L595.253 141.101L596.917 139.992ZM595.509 152.152L593.995 150.845L593.98 150.863L593.964 150.882L595.509 152.152ZM582.069 162.776L581.093 161.03L581.082 161.036L582.069 162.776ZM542.773 160.344L544.175 158.918L544.175 158.918L542.773 160.344ZM539.061 123.992L540.856 124.874L540.862 124.862L539.061 123.992ZM549.301 111.832L548.184 110.173L548.177 110.178L548.169 110.183L549.301 111.832ZM576.181 111.832L574.767 113.246L574.777 113.256L574.787 113.267L576.181 111.832ZM574.261 138.968L572.847 137.554L572.847 137.554L574.261 138.968ZM552.885 148.952L552.408 147.01L549.89 147.629L551.128 149.907L552.885 148.952ZM578.101 150.872L579.057 152.629L579.067 152.623L578.101 150.872ZM590.901 140.248L589.382 138.946L589.37 138.961L589.357 138.977L590.901 140.248ZM554.037 125.4L552.326 124.365L552.317 124.38L552.308 124.395L554.037 125.4ZM550.837 138.968H548.837V141.498L551.299 140.914L550.837 138.968ZM562.741 133.592L561.47 132.048L561.47 132.048L562.741 133.592ZM565.685 121.432L564.149 122.712L564.207 122.782L564.271 122.846L565.685 121.432ZM594.357 140.456C594.697 140.456 594.921 140.539 595.189 141L598.645 138.984C597.719 137.397 596.235 136.456 594.357 136.456V140.456ZM595.253 141.101C595.638 141.679 595.941 142.648 595.941 144.216H599.941C599.941 142.2 599.562 140.353 598.581 138.883L595.253 141.101ZM595.941 144.216C595.941 147.33 595.202 149.447 593.995 150.845L597.023 153.459C599.058 151.102 599.941 147.929 599.941 144.216H595.941ZM593.964 150.882C591.009 154.476 586.747 157.871 581.093 161.03L583.045 164.522C588.996 161.196 593.695 157.508 597.054 153.422L593.964 150.882ZM581.082 161.036C575.666 164.108 569.862 165.64 563.637 165.64V169.64C570.554 169.64 577.038 167.929 583.056 164.516L581.082 161.036ZM563.637 165.64C555.042 165.64 548.65 163.316 544.175 158.918L541.371 161.77C546.794 167.1 554.312 169.64 563.637 169.64V165.64ZM544.175 158.918C539.689 154.509 537.349 148.412 537.349 140.376H533.349C533.349 149.236 535.959 156.451 541.371 161.77L544.175 158.918ZM537.349 140.376C537.349 134.778 538.523 129.621 540.856 124.874L537.266 123.11C534.65 128.433 533.349 134.198 533.349 140.376H537.349ZM540.862 124.862C543.197 120.031 546.39 116.256 550.433 113.481L548.169 110.183C543.508 113.382 539.874 117.713 537.26 123.122L540.862 124.862ZM550.418 113.491C554.512 110.735 559.113 109.352 564.277 109.352V105.352C558.348 105.352 552.964 106.955 548.184 110.173L550.418 113.491ZM564.277 109.352C568.794 109.352 572.219 110.699 574.767 113.246L577.595 110.418C574.169 106.992 569.659 105.352 564.277 105.352V109.352ZM574.787 113.267C577.307 115.714 578.661 119.121 578.661 123.736H582.661C582.661 118.282 581.028 113.752 577.575 110.397L574.787 113.267ZM578.661 123.736C578.661 129.079 576.749 133.652 572.847 137.554L575.675 140.382C580.307 135.751 582.661 130.169 582.661 123.736H578.661ZM572.847 137.554C569.052 141.348 562.355 144.565 552.408 147.01L553.362 150.894C563.554 148.39 571.107 144.951 575.675 140.382L572.847 137.554ZM551.128 149.907C553.729 154.693 558.623 156.84 565.045 156.84V152.84C559.52 152.84 556.308 151.062 554.642 147.997L551.128 149.907ZM565.045 156.84C569.334 156.84 574.02 155.368 579.057 152.629L577.145 149.115C572.454 151.667 568.436 152.84 565.045 152.84V156.84ZM579.067 152.623C584.237 149.771 588.7 146.067 592.445 141.519L589.357 138.977C585.934 143.133 581.864 146.512 577.135 149.121L579.067 152.623ZM592.42 141.55C593.158 140.687 593.792 140.456 594.357 140.456V136.456C592.362 136.456 590.692 137.419 589.382 138.946L592.42 141.55ZM562.101 117.896C558.002 117.896 554.761 120.337 552.326 124.365L555.748 126.435C557.75 123.124 559.885 121.896 562.101 121.896V117.896ZM552.308 124.395C549.961 128.431 548.837 133.233 548.837 138.712H552.837C552.837 133.78 553.846 129.707 555.766 126.405L552.308 124.395ZM548.837 138.712V138.968H552.837V138.712H548.837ZM551.299 140.914C556.525 139.674 560.804 137.778 564.012 135.136L561.47 132.048C558.875 134.185 555.219 135.873 550.375 137.022L551.299 140.914ZM564.012 135.136C567.278 132.447 569.093 129.143 569.093 125.272H565.093C565.093 127.716 564.007 129.959 561.47 132.048L564.012 135.136ZM569.093 125.272C569.093 123.245 568.493 121.412 567.099 120.018L564.271 122.846C564.754 123.33 565.093 124.056 565.093 125.272H569.093ZM567.221 120.152C565.928 118.599 564.13 117.896 562.101 117.896V121.896C563.144 121.896 563.735 122.217 564.149 122.712L567.221 120.152ZM643.967 126.936L642.508 128.304L642.552 128.351L642.599 128.395L643.967 126.936ZM645.247 135.384L647.083 136.178L647.094 136.152L647.104 136.127L645.247 135.384ZM639.487 143.32L640.793 144.835L640.793 144.835L639.487 143.32ZM625.151 143.96L623.701 145.337L623.719 145.356L623.737 145.374L625.151 143.96ZM622.975 131.8L620.99 131.552L620.986 131.585L620.983 131.619L622.975 131.8ZM622.719 127.448L621.119 128.648L621.204 128.762L621.305 128.862L622.719 127.448ZM616.831 131.288L618.448 132.464L618.457 132.453L618.465 132.441L616.831 131.288ZM610.687 142.552L608.854 141.752L608.854 141.752L610.687 142.552ZM605.695 157.4L603.753 156.922L603.749 156.938L603.746 156.953L605.695 157.4ZM602.495 165.592L600.99 164.275L600.99 164.275L602.495 165.592ZM589.695 162.52L587.822 163.222L587.83 163.243L587.838 163.263L589.695 162.52ZM592.511 114.52L594.418 115.123L594.421 115.113L592.511 114.52ZM596.223 109.144L597.313 110.821L597.323 110.815L597.332 110.808L596.223 109.144ZM606.335 119.64L604.403 119.123L604.399 119.139L604.395 119.155L606.335 119.64ZM603.007 138.072L601.015 137.891L604.874 138.789L603.007 138.072ZM612.479 120.152L610.886 118.943L610.886 118.943L612.479 120.152ZM637.439 109.528L635.939 110.851L635.981 110.898L636.025 110.942L637.439 109.528ZM638.079 124.888L636.121 124.482L635.621 126.888H638.079V124.888ZM639.231 126.888C640.557 126.888 641.607 127.343 642.508 128.304L645.426 125.568C643.767 123.798 641.659 122.888 639.231 122.888V126.888ZM642.599 128.395C643.54 129.277 644.015 130.36 644.015 131.8H648.015C648.015 129.315 647.125 127.155 645.335 125.477L642.599 128.395ZM644.015 131.8C644.015 132.601 643.83 133.542 643.39 134.641L647.104 136.127C647.688 134.666 648.015 133.217 648.015 131.8H644.015ZM643.411 134.59C642.159 137.485 640.415 139.879 638.181 141.805L640.793 144.835C643.508 142.494 645.604 139.597 647.083 136.178L643.411 134.59ZM638.181 141.805C636.033 143.657 633.756 144.52 631.295 144.52V148.52C634.807 148.52 637.992 147.249 640.793 144.835L638.181 141.805ZM631.295 144.52C629.442 144.52 627.901 143.882 626.565 142.546L623.737 145.374C625.814 147.452 628.369 148.52 631.295 148.52V144.52ZM626.601 142.583C625.411 141.33 624.719 139.562 624.719 137.048H620.719C620.719 140.337 621.649 143.177 623.701 145.337L626.601 142.583ZM624.719 137.048C624.719 135.496 624.801 133.808 624.967 131.981L620.983 131.619C620.808 133.547 620.719 135.357 620.719 137.048H624.719ZM624.96 132.048C625.129 130.693 625.231 129.638 625.231 128.984H621.231C621.231 129.354 621.162 130.176 620.99 131.552L624.96 132.048ZM625.231 128.984C625.231 127.993 624.982 126.882 624.133 126.034L621.305 128.862C621.271 128.828 621.246 128.794 621.228 128.765C621.211 128.736 621.205 128.719 621.206 128.72C621.208 128.727 621.231 128.803 621.231 128.984H625.231ZM624.319 126.248C623.685 125.403 622.751 124.936 621.695 124.936V128.936C621.635 128.936 621.515 128.922 621.377 128.853C621.238 128.784 621.155 128.696 621.119 128.648L624.319 126.248ZM621.695 124.936C620.336 124.936 619.158 125.721 618.249 126.534C617.278 127.402 616.261 128.628 615.197 130.135L618.465 132.441C619.449 131.047 620.266 130.096 620.917 129.514C621.63 128.876 621.859 128.936 621.695 128.936V124.936ZM615.214 130.112C613.051 133.086 610.936 136.982 608.854 141.752L612.52 143.352C614.534 138.736 616.515 135.122 618.448 132.464L615.214 130.112ZM608.854 141.752C606.758 146.554 605.059 151.612 603.753 156.922L607.637 157.878C608.891 152.777 610.52 147.936 612.52 143.352L608.854 141.752ZM603.746 156.953C602.808 161.046 601.822 163.324 600.99 164.275L604 166.909C605.557 165.13 606.705 161.946 607.644 157.847L603.746 156.953ZM600.99 164.275C600.333 165.026 599.055 165.64 596.607 165.64V169.64C599.621 169.64 602.268 168.889 604 166.909L600.99 164.275ZM596.607 165.64C595.356 165.64 594.401 165.318 593.637 164.753C592.857 164.175 592.135 163.235 591.552 161.777L587.838 163.263C588.62 165.218 589.733 166.839 591.257 167.967C592.797 169.108 594.616 169.64 596.607 169.64V165.64ZM591.568 161.818C590.421 158.761 589.775 153.605 589.775 146.136H585.775C585.775 153.686 586.409 159.453 587.822 163.222L591.568 161.818ZM589.775 146.136C589.775 135.235 591.326 124.901 594.418 115.123L590.604 113.917C587.381 124.107 585.775 134.85 585.775 146.136H589.775ZM594.421 115.113C595.089 112.96 596.095 111.613 597.313 110.821L595.133 107.467C592.938 108.894 591.469 111.131 590.601 113.927L594.421 115.113ZM597.332 110.808C598.676 109.912 600.71 109.352 603.647 109.352V105.352C600.269 105.352 597.354 105.986 595.114 107.48L597.332 110.808ZM603.647 109.352C605.314 109.352 606.004 109.584 606.171 109.688L608.291 106.296C607.093 105.547 605.394 105.352 603.647 105.352V109.352ZM606.171 109.688C606.13 109.662 606.13 109.634 606.156 109.696C606.193 109.785 606.255 110.003 606.255 110.424H610.255C610.255 108.899 609.809 107.245 608.291 106.296L606.171 109.688ZM606.255 110.424C606.255 110.882 606.136 111.815 605.817 113.344C605.508 114.829 605.038 116.751 604.403 119.123L608.267 120.157C608.912 117.75 609.402 115.747 609.733 114.16C610.054 112.617 610.255 111.331 610.255 110.424H606.255ZM604.395 119.155C603.536 122.589 602.846 125.608 602.326 128.208L606.248 128.992C606.752 126.472 607.427 123.517 608.275 120.125L604.395 119.155ZM602.326 128.208C601.795 130.861 601.36 134.094 601.015 137.891L604.999 138.253C605.336 134.541 605.755 131.459 606.248 128.992L602.326 128.208ZM604.874 138.789C607.645 131.568 610.72 125.776 614.072 121.361L610.886 118.943C607.241 123.744 604.001 129.899 601.14 137.355L604.874 138.789ZM614.072 121.361C617.484 116.867 620.713 113.801 623.735 112.019L621.703 108.573C618.069 110.717 614.471 114.221 610.886 118.943L614.072 121.361ZM623.735 112.019C626.876 110.166 629.552 109.352 631.807 109.352V105.352C628.601 105.352 625.218 106.5 621.703 108.573L623.735 112.019ZM631.807 109.352C633.879 109.352 635.139 109.945 635.939 110.851L638.939 108.205C637.179 106.21 634.684 105.352 631.807 105.352V109.352ZM636.025 110.942C636.883 111.8 637.487 113.25 637.487 115.672H641.487C641.487 112.633 640.726 109.986 638.853 108.114L636.025 110.942ZM637.487 115.672C637.487 117.056 637.065 119.932 636.121 124.482L640.037 125.294C640.97 120.798 641.487 117.53 641.487 115.672H637.487ZM638.079 126.888H639.231V122.888H638.079V126.888ZM712.846 150.36L711.699 148.722L711.699 148.722L712.846 150.36ZM702.094 152.152V150.152H700.239L700.1 152.001L702.094 152.152ZM701.582 158.936L699.588 158.785L699.587 158.796L699.586 158.806L701.582 158.936ZM699.022 166.872L697.651 165.416L697.629 165.436L697.608 165.458L699.022 166.872ZM685.582 158.424L687.555 158.753L687.565 158.69L687.572 158.627L685.582 158.424ZM686.222 152.152L688.212 152.355L688.436 150.152H686.222V152.152ZM658.062 152.024L658.089 150.024L658.075 150.024H658.062V152.024ZM653.07 149.464L654.594 148.169L654.594 148.169L653.07 149.464ZM651.79 137.688L649.899 137.038L649.896 137.047L649.893 137.056L651.79 137.688ZM668.686 100.44L666.928 99.4858L666.926 99.4899L668.686 100.44ZM673.55 94.168L674.736 95.7781L674.743 95.7731L674.75 95.768L673.55 94.168ZM685.582 93.528L684.237 95.0079L684.269 95.0369L684.302 95.0644L685.582 93.528ZM685.838 101.208L684.114 100.194L684.099 100.221L684.084 100.248L685.838 101.208ZM668.174 138.2L666.294 137.517L665.319 140.2H668.174V138.2ZM687.886 138.2V140.2H689.645L689.87 138.456L687.886 138.2ZM692.11 115.544L690.173 115.044L690.172 115.052L690.17 115.059L692.11 115.544ZM695.438 109.528L696.767 111.023L696.789 111.003L696.811 110.982L695.438 109.528ZM708.11 115.544L706.187 114.995L706.168 115.062L706.153 115.13L708.11 115.544ZM704.014 138.2L702.037 137.899L701.687 140.2H704.014V138.2ZM708.622 140.2C710.648 140.2 711.794 140.637 712.416 141.165C712.974 141.639 713.406 142.442 713.406 143.96H717.406C717.406 141.638 716.707 139.561 715.004 138.115C713.365 136.723 711.119 136.2 708.622 136.2V140.2ZM713.406 143.96C713.406 146.707 712.65 148.056 711.699 148.722L713.993 151.998C716.456 150.275 717.406 147.357 717.406 143.96H713.406ZM711.699 148.722C710.5 149.561 708.316 150.152 704.782 150.152V154.152C708.586 154.152 711.779 153.548 713.993 151.998L711.699 148.722ZM704.782 150.152H702.094V154.152H704.782V150.152ZM700.1 152.001L699.588 158.785L703.576 159.087L704.088 152.303L700.1 152.001ZM699.586 158.806C699.335 162.652 698.51 164.608 697.651 165.416L700.393 168.328C702.436 166.406 703.317 163.071 703.578 159.066L699.586 158.806ZM697.608 165.458C696.796 166.27 695.186 166.92 692.238 166.92V170.92C695.605 170.92 698.517 170.205 700.436 168.286L697.608 165.458ZM692.238 166.92C690.405 166.92 689.354 166.378 688.7 165.576C687.983 164.696 687.454 163.153 687.454 160.6H683.454C683.454 163.594 684.056 166.21 685.6 168.104C687.208 170.075 689.548 170.92 692.238 170.92V166.92ZM687.454 160.6C687.454 159.699 687.497 159.102 687.555 158.753L683.609 158.095C683.497 158.77 683.454 159.624 683.454 160.6H687.454ZM687.572 158.627L688.212 152.355L684.232 151.949L683.592 158.221L687.572 158.627ZM686.222 150.152C673.851 150.152 664.475 150.109 658.089 150.024L658.035 154.024C664.449 154.109 673.846 154.152 686.222 154.152V150.152ZM658.062 150.024C656.886 150.024 655.745 149.523 654.594 148.169L651.546 150.759C653.296 152.818 655.484 154.024 658.062 154.024V150.024ZM654.594 148.169C653.514 146.898 652.894 145.172 652.894 142.808H648.894C648.894 145.905 649.725 148.616 651.546 150.759L654.594 148.169ZM652.894 142.808C652.894 141.434 653.147 139.941 653.687 138.32L649.893 137.056C649.238 139.019 648.894 140.94 648.894 142.808H652.894ZM653.681 138.338C657.39 127.549 662.971 115.236 670.446 101.39L666.926 99.4899C659.382 113.463 653.699 125.982 649.899 137.038L653.681 138.338ZM670.444 101.394C672.009 98.5114 673.46 96.7183 674.736 95.7781L672.364 92.5579C670.397 94.0071 668.606 96.3953 666.928 99.4858L670.444 101.394ZM674.75 95.768C675.951 94.867 678.038 94.248 681.358 94.248V90.248C677.68 90.248 674.562 90.9089 672.35 92.568L674.75 95.768ZM681.358 94.248C682.972 94.248 683.809 94.6188 684.237 95.0079L686.927 92.0481C685.478 90.7305 683.499 90.248 681.358 90.248V94.248ZM684.302 95.0644C684.857 95.5273 685.118 96.0676 685.118 96.856H689.118C689.118 94.9138 688.355 93.2354 686.862 91.9916L684.302 95.0644ZM685.118 96.856C685.118 97.8964 684.816 99.0008 684.114 100.194L687.562 102.222C688.567 100.514 689.118 98.717 689.118 96.856H685.118ZM684.084 100.248C675.702 115.556 669.759 127.99 666.294 137.517L670.054 138.883C673.416 129.637 679.248 117.409 687.592 102.168L684.084 100.248ZM668.174 140.2H687.886V136.2H668.174V140.2ZM689.87 138.456C690.884 130.591 692.279 123.116 694.05 116.029L690.17 115.059C688.357 122.308 686.936 129.937 685.902 137.944L689.87 138.456ZM694.047 116.044C694.662 113.659 695.611 112.05 696.767 111.023L694.109 108.033C692.193 109.737 690.923 112.139 690.173 115.044L694.047 116.044ZM696.811 110.982C697.877 109.975 699.463 109.352 701.838 109.352V105.352C698.751 105.352 696.071 106.179 694.065 108.074L696.811 110.982ZM701.838 109.352C703.772 109.352 704.849 109.775 705.428 110.274C705.949 110.724 706.366 111.498 706.366 112.984H710.366C710.366 110.715 709.695 108.673 708.04 107.246C706.443 105.867 704.256 105.352 701.838 105.352V109.352ZM706.366 112.984C706.366 114.029 706.281 114.664 706.187 114.995L710.033 116.093C710.28 115.23 710.366 114.158 710.366 112.984H706.366ZM706.153 115.13C704.609 122.423 703.237 130.013 702.037 137.899L705.991 138.501C707.181 130.686 708.539 123.172 710.067 115.958L706.153 115.13ZM704.014 140.2H708.622V136.2H704.014V140.2Z" fill="white"/>
</svg>
