<svg width="50" height="50" viewBox="0 0 50 50" fill="none" xmlns="http://www.w3.org/2000/svg">
<g opacity="0.45" clip-path="url(#clip0_490_34)">
<path d="M25 50C38.8071 50 50 38.8071 50 25C50 11.1929 38.8071 0 25 0C11.1929 0 0 11.1929 0 25C0 38.8071 11.1929 50 25 50Z" fill="#F0F0F0"/>
<path d="M23.9131 25H50C50 22.7436 49.6992 20.5577 49.1388 18.4783H23.9131V25Z" fill="#D80027"/>
<path d="M23.9131 11.9566H46.3307C44.8003 9.45933 42.8436 7.252 40.5621 5.43481H23.9131V11.9566Z" fill="#D80027"/>
<path d="M25.0001 50.0001C30.8838 50.0001 36.2917 47.9665 40.5622 44.5653H9.43799C13.7085 47.9665 19.1164 50.0001 25.0001 50.0001Z" fill="#D80027"/>
<path d="M3.66943 38.0435H46.3308C47.5594 36.0387 48.5122 33.8473 49.1389 31.5217H0.861328C1.48799 33.8473 2.44082 36.0387 3.66943 38.0435Z" fill="#D80027"/>
<path d="M11.5805 3.9041H13.8587L11.7396 5.44365L12.549 7.93477L10.43 6.39522L8.31094 7.93477L9.01016 5.78271C7.14434 7.33691 5.50898 9.15781 4.16133 11.1867H4.89131L3.54238 12.1667C3.33223 12.5173 3.13066 12.8734 2.9375 13.2349L3.58164 15.2174L2.37988 14.3442C2.08115 14.9771 1.80791 15.6243 1.5623 16.285L2.27197 18.4693H4.89131L2.77217 20.0089L3.58164 22.5L1.4626 20.9604L0.193262 21.8827C0.0662109 22.904 0 23.9442 0 25H25C25 11.193 25 9.56523 25 0C20.0613 0 15.4575 1.43262 11.5805 3.9041ZM12.549 22.5L10.43 20.9604L8.31094 22.5L9.12041 20.0089L7.00127 18.4693H9.62061L10.43 15.9782L11.2394 18.4693H13.8587L11.7396 20.0089L12.549 22.5ZM11.7396 12.7263L12.549 15.2174L10.43 13.6778L8.31094 15.2174L9.12041 12.7263L7.00127 11.1867H9.62061L10.43 8.69561L11.2394 11.1867H13.8587L11.7396 12.7263ZM21.5164 22.5L19.3974 20.9604L17.2783 22.5L18.0878 20.0089L15.9687 18.4693H18.588L19.3974 15.9782L20.2067 18.4693H22.8261L20.7069 20.0089L21.5164 22.5ZM20.7069 12.7263L21.5164 15.2174L19.3974 13.6778L17.2783 15.2174L18.0878 12.7263L15.9687 11.1867H18.588L19.3974 8.69561L20.2067 11.1867H22.8261L20.7069 12.7263ZM20.7069 5.44365L21.5164 7.93477L19.3974 6.39522L17.2783 7.93477L18.0878 5.44365L15.9687 3.9041H18.588L19.3974 1.41299L20.2067 3.9041H22.8261L20.7069 5.44365Z" fill="#0052B4"/>
</g>
<defs>
<clipPath id="clip0_490_34">
<rect width="50" height="50" fill="white"/>
</clipPath>
</defs>
</svg>
