<svg width="100" height="100" viewBox="0 0 100 100" fill="none" xmlns="http://www.w3.org/2000/svg">
<path d="M93.2928 25.5267C88.8217 17.6739 82.7569 11.4567 75.0968 6.87394C67.4356 2.29092 59.0718 0 49.9995 0C40.9284 0 32.5619 2.29163 24.9023 6.87394C17.2415 11.4565 11.1769 17.6739 6.7058 25.5267C2.23534 33.3793 0 41.9545 0 51.2519C0 62.4202 3.17869 72.463 9.53765 81.3829C15.8959 90.3035 24.1099 96.4762 34.1789 99.9017C35.3509 100.125 36.2186 99.9679 36.7827 99.4352C37.3471 98.9018 37.6289 98.2337 37.6289 97.4338C37.6289 97.3004 37.6177 96.0996 37.5961 93.8302C37.5737 91.5608 37.5632 89.581 37.5632 87.8917L36.0658 88.1572C35.111 88.3365 33.9066 88.4125 32.4525 88.391C30.999 88.3702 29.4902 88.2141 27.928 87.9237C26.3651 87.636 24.9114 86.9687 23.5658 85.9231C22.2209 84.8776 21.2662 83.509 20.7018 81.8195L20.0508 80.2838C19.6169 79.2614 18.9337 78.1257 18.0004 76.8807C17.0671 75.6347 16.1233 74.7899 15.1685 74.3451L14.7127 74.0106C14.409 73.7883 14.1271 73.5202 13.8665 73.2091C13.6061 72.898 13.4111 72.5866 13.2809 72.2748C13.1505 71.9628 13.2586 71.7068 13.6063 71.506C13.9541 71.3052 14.5825 71.2078 15.4944 71.2078L16.796 71.4072C17.6641 71.5855 18.7378 72.1182 20.0187 73.0085C21.2988 73.8982 22.3511 75.0547 23.1759 76.4778C24.1747 78.3024 25.378 79.6927 26.7892 80.6494C28.1993 81.6061 29.6211 82.0836 31.0531 82.0836C32.4851 82.0836 33.7219 81.9724 34.764 81.751C35.8049 81.5285 36.7815 81.194 37.6934 80.7494C38.084 77.7673 39.1475 75.4764 40.8831 73.875C38.4094 73.6086 36.1855 73.2072 34.2101 72.6736C32.2358 72.1392 30.1957 71.272 28.091 70.0697C25.9852 68.8689 24.2383 67.3779 22.8498 65.5991C21.4611 63.8194 20.3215 61.4829 19.4324 58.5917C18.5429 55.6993 18.098 52.3629 18.098 48.5814C18.098 43.1971 19.8127 38.6152 23.2416 34.8332C21.6354 30.7853 21.787 26.2473 23.6969 21.22C24.9556 20.8191 26.8223 21.1199 29.2959 22.1206C31.77 23.1217 33.5814 23.9793 34.732 24.6904C35.8827 25.4012 36.8046 26.0036 37.4991 26.4921C41.5364 25.3357 45.7026 24.7575 49.9991 24.7575C54.2956 24.7575 58.4627 25.3357 62.5002 26.4921L64.974 24.8912C66.6658 23.823 68.6635 22.844 70.9625 21.9542C73.2628 21.0648 75.0218 20.8198 76.2376 21.2207C78.19 26.2483 78.364 30.786 76.7573 34.8339C80.1859 38.6159 81.9013 43.1989 81.9013 48.5821C81.9013 52.3636 81.4548 55.7105 80.5667 58.6251C79.6774 61.5401 78.5279 63.8743 77.1178 65.6325C75.7061 67.3905 73.948 68.8699 71.8433 70.0704C69.7382 71.2718 67.6973 72.139 65.7231 72.6733C63.7479 73.2077 61.524 73.6093 59.0504 73.8762C61.3065 75.8775 62.4347 79.0366 62.4347 83.3519V97.432C62.4347 98.2318 62.7061 98.8997 63.2492 99.4333C63.7917 99.966 64.6484 100.123 65.8205 99.8996C75.8908 96.4746 84.1048 90.3016 90.4628 81.381C96.8202 72.4611 100 62.4183 100 51.25C99.9977 41.9538 97.7612 33.3793 93.2928 25.5267Z" fill="#FDFDFD"/>
</svg>
