<svg width="100" height="100" viewBox="0 0 100 100" fill="none" xmlns="http://www.w3.org/2000/svg">
<path fill-rule="evenodd" clip-rule="evenodd" d="M50 0C22.3858 0 0 22.3858 0 50C0 77.6142 22.3858 100 50 100C77.6142 100 100 77.6142 100 50C100 22.3858 77.6142 0 50 0ZM39.0069 23.4944C41.8512 23.365 42.7602 23.3333 50.0025 23.3333H49.9942C57.2387 23.3333 58.1442 23.365 60.9887 23.4944C63.8277 23.6244 65.7665 24.074 67.4667 24.7333C69.2221 25.414 70.7054 26.325 72.1888 27.8083C73.6723 29.2906 74.5833 30.7783 75.2667 32.5323C75.9223 34.2279 76.3723 36.1656 76.5056 39.0046C76.6333 41.8492 76.6667 42.7579 76.6667 50.0002C76.6667 57.2425 76.6333 58.1492 76.5056 60.9937C76.3723 63.8315 75.9223 65.7698 75.2667 67.466C74.5833 69.2194 73.6723 70.7071 72.1888 72.1894C70.7071 73.6727 69.2217 74.586 67.4683 75.2673C65.7715 75.9267 63.8315 76.376 60.9927 76.506C58.1481 76.6356 57.2421 76.6673 49.9992 76.6673C42.7575 76.6673 41.8492 76.6356 39.0046 76.506C36.1662 76.376 34.2279 75.9267 32.5312 75.2673C30.7783 74.586 29.2906 73.6727 27.809 72.1894C26.326 70.7071 25.415 69.2194 24.7333 67.4654C24.0744 65.7698 23.625 63.8321 23.4944 60.9931C23.3656 58.1487 23.3333 57.2425 23.3333 50.0002C23.3333 42.7579 23.3667 41.8485 23.494 39.004C23.6217 36.1663 24.0717 34.2279 24.7327 32.5317C25.416 30.7783 26.3273 29.2906 27.8106 27.8083C29.2929 26.3256 30.7806 25.4144 32.5346 24.7333C34.2302 24.074 36.1679 23.6244 39.0069 23.4944Z" fill="#FDFDFD"/>
<path fill-rule="evenodd" clip-rule="evenodd" d="M47.6105 28.1389C48.0749 28.1383 48.5747 28.1385 49.1139 28.1387L50.0028 28.1389C57.1228 28.1389 57.9668 28.1646 60.7784 28.2923C63.3784 28.4112 64.7895 28.8456 65.7295 29.2106C66.9741 29.6939 67.8611 30.2718 68.7941 31.2052C69.7274 32.1385 70.3051 33.0275 70.7897 34.2718C71.1547 35.2108 71.5897 36.6218 71.708 39.2218C71.8357 42.0331 71.8634 42.8775 71.8634 49.9941C71.8634 57.111 71.8357 57.9554 71.708 60.7666C71.5891 63.3666 71.1547 64.7777 70.7897 65.7166C70.3064 66.961 69.7274 67.8473 68.7941 68.78C67.8607 69.7133 66.9745 70.2912 65.7295 70.7746C64.7907 71.1412 63.3784 71.5746 60.7784 71.6933C57.9672 71.8212 57.1228 71.8489 50.0028 71.8489C42.8822 71.8489 42.0382 71.8212 39.227 71.6933C36.627 71.5733 35.2159 71.1389 34.2753 70.7739C33.0309 70.2906 32.142 69.7127 31.2086 68.7793C30.2753 67.846 29.6976 66.9593 29.213 65.7143C28.848 64.7756 28.413 63.3643 28.2947 60.7643C28.167 57.9533 28.1414 57.1087 28.1414 49.9875C28.1414 42.8664 28.167 42.0264 28.2947 39.2152C28.4136 36.6152 28.848 35.2041 29.213 34.2641C29.6964 33.0196 30.2753 32.1308 31.2086 31.1975C32.142 30.2641 33.0309 29.6862 34.2753 29.2018C35.2153 28.8352 36.627 28.4018 39.227 28.2823C41.687 28.1712 42.6405 28.1379 47.6105 28.1323V28.1389ZM64.2374 32.5668C62.4707 32.5668 61.0372 33.9985 61.0372 35.7658C61.0372 37.5325 62.4707 38.9658 64.2374 38.9658C66.0041 38.9658 67.4374 37.5325 67.4374 35.7658C67.4374 33.9991 66.0041 32.5658 64.2374 32.5658V32.5668ZM36.3082 50.0004C36.3082 42.4377 42.4395 36.306 50.0022 36.3058C57.5651 36.3058 63.6951 42.4375 63.6951 50.0004C63.6951 57.5633 57.5655 63.6923 50.0028 63.6923C42.4399 63.6923 36.3082 57.5633 36.3082 50.0004Z" fill="#FDFDFD"/>
<path d="M50.0025 41.1113C54.9114 41.1113 58.8914 45.0908 58.8914 50.0002C58.8914 54.9092 54.9114 58.8892 50.0025 58.8892C45.0931 58.8892 41.1135 54.9092 41.1135 50.0002C41.1135 45.0908 45.0931 41.1113 50.0025 41.1113Z" fill="#FDFDFD"/>
</svg>
