<svg width="75" height="75" viewBox="0 0 75 75" fill="none" xmlns="http://www.w3.org/2000/svg">
<path d="M37.5 0C16.7906 0 0 17.0032 0 37.9747C0 55.769 12.1 70.6582 28.4125 74.7785C28.2375 74.2658 28.125 73.6709 28.125 72.9335V66.443C26.6031 66.443 24.0531 66.443 23.4125 66.443C20.8469 66.443 18.5656 65.3259 17.4594 63.25C16.2312 60.943 16.0187 57.4146 12.975 55.2563C12.0719 54.538 12.7594 53.7184 13.8 53.8291C15.7219 54.3797 17.3156 55.7152 18.8156 57.6962C20.3094 59.6804 21.0125 60.1297 23.8031 60.1297C25.1562 60.1297 27.1812 60.0506 29.0875 59.7468C30.1125 57.1108 31.8844 54.6835 34.05 53.538C21.5625 52.2373 15.6031 45.9462 15.6031 37.4051C15.6031 33.7278 17.15 30.1709 19.7781 27.174C18.9156 24.1994 17.8313 18.1329 20.1094 15.8228C25.7281 15.8228 29.125 19.5127 29.9406 20.5095C32.7406 19.538 35.8156 18.9873 39.0469 18.9873C42.2844 18.9873 45.3719 19.538 48.1781 20.5158C48.9844 19.5253 52.3844 15.8228 58.0156 15.8228C60.3031 18.1361 59.2062 24.2278 58.3344 27.1962C60.9469 30.1867 62.4844 33.7342 62.4844 37.4051C62.4844 45.9399 56.5344 52.2278 44.0656 53.5348C47.4969 55.3481 50 60.443 50 64.2816V72.9335C50 73.2627 49.9281 73.5 49.8906 73.7816C64.5031 68.5949 75 54.5443 75 37.9747C75 17.0032 58.2094 0 37.5 0Z" fill="#817575"/>
</svg>
